<svg id="Layer_1" data-name="Layer 1" xmlns="http://www.w3.org/2000/svg" width="16.3751cm" height="4.7921cm" viewBox="0 0 464.1758 135.8403" xmlns:xlink="http://www.w3.org/1999/xlink">
 <defs>
  <style>
   .cls-1{fill:#fff;}.cls-2{fill:#a4dd36;}.cls-3{fill:#0b236b;}
  </style>
 </defs>
 <rect class="cls-1" x="328.2868" width="135.889" height="135.8403">
 </rect>
 <rect class="cls-2" x="332.2312" y="3.9427" width="128.0003" height="25.5905">
 </rect>
 <rect class="cls-3" x="332.2312" y="29.5332" width="128.0003" height="25.589">
 </rect>
 <rect class="cls-2" x="332.2312" y="55.1222" width="128.0003" height="25.5925">
 </rect>
 <rect class="cls-3" x="332.2312" y="80.7147" width="128.0003" height="25.5899">
 </rect>
 <rect class="cls-2" x="332.2312" y="106.3046" width="128.0003" height="25.593">
 </rect>
 <path class="cls-3" d="M92.9272,91.2449q0,18.8059-13.9408,30.1516-13.9031,11.3526-36.9792,11.3492A83.3368,83.3368,0,0,1,0,121.5837l9.2443-19.3162q18.9456,9.88,33.8583,9.8793,21.6175,0,21.6121-16.8161c0-7.7156-5.3608-13.0119-16.13-15.9632L34.9363,75.6461c-11.7907-3.22-19.9272-8.4192-24.2836-15.6289A35.4026,35.4026,0,0,1,5.4962,41.2245c0-11.2449,4.0785-20.4376,12.317-27.4923C26.0361,6.6185,36.6294,3.0946,49.6856,3.0946q23.91,0,41.13,12.3871L79.116,33.2233c-10.4076-6.2619-20.0155-9.4018-28.7315-9.4018q-7.6494,0-12.4359,4.0191A12.6134,12.6134,0,0,0,33.161,38.03,9.667,9.667,0,0,0,36.18,45.5667q3.009,2.7558,10.6527,4.8723l14.9063,4.0868Q92.935,63.0581,92.9272,91.2449Z">
 </path>
 <path class="cls-3" d="M198.1754,121.0525a80.3722,80.3722,0,0,1-41.7479,11.2409q-27.8938,0-42.8683-19.2167-13.4016-17.1437-13.3867-43.9492,0-39.5754,26.2281-57.1454c8.7852-5.89,18.99-8.8792,30.5591-8.8792q23.3256,0,39.9852,14.5187L183.546,33.3324c-7.9481-6.4927-16.7275-9.7745-26.2238-9.7745-7.5922,0-13.6377,2.1433-18.0919,6.3213Q128.5985,40.2231,128.5668,70.417q0,26.5692,9.3691,35.8145,7.24,7.0485,19.7484,7.06a30.9884,30.9884,0,0,0,14.281-3.0732V81.6326h-19.16L149.518,60.9938h48.6574Z">
 </path>
 <path class="cls-3" d="M308.7209,130.0624H278.7827l-22.17-43.4268-22.0005,43.4268h-30.868l38.6634-65.9711L209.0747,6.8134h30.3387L256.0513,39.99,272.9307,6.8134h29.6146l-32.08,55.6785Z">
 </path>
</svg>