<?xml version="1.0" encoding="UTF-8" standalone="no"?>
<svg
   xmlns:dc="http://purl.org/dc/elements/1.1/"
   xmlns:cc="http://creativecommons.org/ns#"
   xmlns:rdf="http://www.w3.org/1999/02/22-rdf-syntax-ns#"
   xmlns:svg="http://www.w3.org/2000/svg"
   xmlns="http://www.w3.org/2000/svg"
   xmlns:sodipodi="http://sodipodi.sourceforge.net/DTD/sodipodi-0.dtd"
   xmlns:inkscape="http://www.inkscape.org/namespaces/inkscape"
   viewBox="0 0 379.56 149.16035"
   id="svg2"
   version="1.1"
   inkscape:version="0.91 r13725"
   sodipodi:docname="logo.svg"
   width="379.56"
   height="149.16035">
  <metadata
     id="metadata10">
    <rdf:RDF>
      <cc:Work
         rdf:about="">
        <dc:format>image/svg+xml</dc:format>
        <dc:type
           rdf:resource="http://purl.org/dc/dcmitype/StillImage" />
        <dc:title></dc:title>
      </cc:Work>
    </rdf:RDF>
  </metadata>
  <defs
     id="defs8">
    <clipPath
       id="clipPath4156"
       clipPathUnits="userSpaceOnUse">
      <path
         inkscape:connector-curvature="0"
         id="path4158"
         d="m 0.015015,841.89 595.262995,0 0,-841.89 -595.262995,0 0,841.89 z" />
    </clipPath>
    <clipPath
       id="clipPath4168"
       clipPathUnits="userSpaceOnUse">
      <path
         inkscape:connector-curvature="0"
         id="path4170"
         d="m 0.015015,841.89 595.262995,0 0,-841.89 -595.262995,0 0,841.89 z" />
    </clipPath>
    <clipPath
       id="clipPath4152"
       clipPathUnits="userSpaceOnUse">
      <path
         inkscape:connector-curvature="0"
         id="path4154"
         d="M 0,720 576,720 576,0 0,0 0,720 Z" />
    </clipPath>
    <clipPath
       id="clipPath4170"
       clipPathUnits="userSpaceOnUse">
      <path
         inkscape:connector-curvature="0"
         id="path4172"
         d="M 0,720 576,720 576,0 0,0 0,720 Z" />
    </clipPath>
    <clipPath
       id="clipPath4180"
       clipPathUnits="userSpaceOnUse">
      <path
         inkscape:connector-curvature="0"
         id="path4182"
         d="M 0,0 576,0 576,720 0,720 0,0 Z" />
    </clipPath>
    <clipPath
       id="clipPath4188"
       clipPathUnits="userSpaceOnUse">
      <path
         inkscape:connector-curvature="0"
         id="path4190"
         d="m -23.597,738.82 616.56,0 0,-30.72 -616.56,0 0,30.72 z" />
    </clipPath>
    <clipPath
       id="clipPath4204"
       clipPathUnits="userSpaceOnUse">
      <path
         inkscape:connector-curvature="0"
         id="path4206"
         d="m -14.797,727 360.559,0 0,-133.68 -360.559,0 0,133.68 z" />
    </clipPath>
    <clipPath
       id="clipPath4208"
       clipPathUnits="userSpaceOnUse">
      <path
         inkscape:connector-curvature="0"
         id="path4210"
         d="m -1.058,594.32 330.82,0 0,55.949 -330.82,0 0,-55.949 z" />
    </clipPath>
    <clipPath
       id="clipPath4282"
       clipPathUnits="userSpaceOnUse">
      <path
         inkscape:connector-curvature="0"
         id="path4284"
         d="m 40.32,380.572 136.8,0 0,55.09 -136.8,0 0,-55.09 z" />
    </clipPath>
    <clipPath
       id="clipPath4390"
       clipPathUnits="userSpaceOnUse">
      <path
         inkscape:connector-curvature="0"
         id="path4392"
         d="m 43.462,388.652 129.36,0 0,42.002 -129.36,0 0,-42.002 z" />
    </clipPath>
    <clipPath
       id="clipPath4406"
       clipPathUnits="userSpaceOnUse">
      <path
         inkscape:connector-curvature="0"
         id="path4408"
         d="m 40.32,380.572 136.8,0 0,55.09 -136.8,0 0,-55.09 z" />
    </clipPath>
    <clipPath
       id="clipPath4734"
       clipPathUnits="userSpaceOnUse">
      <path
         inkscape:connector-curvature="0"
         id="path4736"
         d="m 77.685,32.02 336.009,0 0,63.254 -336.009,0 0,-63.254 z" />
    </clipPath>
    <clipPath
       id="clipPath5216"
       clipPathUnits="userSpaceOnUse">
      <path
         inkscape:connector-curvature="0"
         id="path5218"
         d="m 44.64,322.56 120.842,0 0,51.044 -120.842,0 0,-51.044 z" />
    </clipPath>
    <clipPath
       id="clipPath5252"
       clipPathUnits="userSpaceOnUse">
      <path
         inkscape:connector-curvature="0"
         id="path5254"
         d="m 50.934,326.492 110.956,0 0,41.881 -110.956,0 0,-41.881 z" />
    </clipPath>
    <clipPath
       id="clipPath5268"
       clipPathUnits="userSpaceOnUse">
      <path
         inkscape:connector-curvature="0"
         id="path5270"
         d="m 44.64,322.56 120.842,0 0,51.044 -120.842,0 0,-51.044 z" />
    </clipPath>
    <clipPath
       id="clipPath5596"
       clipPathUnits="userSpaceOnUse">
      <path
         inkscape:connector-curvature="0"
         id="path5598"
         d="m 59.354,263.309 94.939,0 0,43.089 -94.939,0 0,-43.089 z" />
    </clipPath>
    <clipPath
       id="clipPath5692"
       clipPathUnits="userSpaceOnUse">
      <path
         inkscape:connector-curvature="0"
         id="path5694"
         d="m 74.043,209.275 63.36,0 0,38.88 -63.36,0 0,-38.88 z" />
    </clipPath>
    <clipPath
       id="clipPath5708"
       clipPathUnits="userSpaceOnUse">
      <path
         inkscape:connector-curvature="0"
         id="path5710"
         d="m 76.843,213.001 59.213,0 0,31.471 -59.213,0 0,-31.471 z" />
    </clipPath>
    <clipPath
       id="clipPath5724"
       clipPathUnits="userSpaceOnUse">
      <path
         inkscape:connector-curvature="0"
         id="path5726"
         d="m 65.087,481.394 83.618,0 0,101.978 -83.618,0 0,-101.978 z" />
    </clipPath>
    <clipPath
       id="clipPath6072"
       clipPathUnits="userSpaceOnUse">
      <path
         inkscape:connector-curvature="0"
         id="path6074"
         d="m 62.115,101.931 89.885,0 0,94.649 -89.885,0 0,-94.649 z" />
    </clipPath>
    <clipPath
       id="clipPath6466"
       clipPathUnits="userSpaceOnUse">
      <path
         inkscape:connector-curvature="0"
         id="path6468"
         d="m 9.556,443.52 199.244,0 0,34.444 -199.244,0 0,-34.444 z" />
    </clipPath>
    <clipPath
       id="clipPath6574"
       clipPathUnits="userSpaceOnUse">
      <path
         inkscape:connector-curvature="0"
         id="path6576"
         d="m 15.583,449.122 185.423,0 0,25.373 -185.423,0 0,-25.373 z" />
    </clipPath>
    <clipPath
       id="clipPath6590"
       clipPathUnits="userSpaceOnUse">
      <path
         inkscape:connector-curvature="0"
         id="path6592"
         d="m 9.556,443.52 199.244,0 0,34.444 -199.244,0 0,-34.444 z" />
    </clipPath>
    <clipPath
       id="clipPath4240"
       clipPathUnits="userSpaceOnUse">
      <path
         inkscape:connector-curvature="0"
         id="path4242"
         d="m 258.998,689.954 83.92499,0 0,83.92603 -83.92499,0 0,-83.92603 z" />
    </clipPath>
    <clipPath
       id="clipPath4326"
       clipPathUnits="userSpaceOnUse">
      <path
         inkscape:connector-curvature="0"
         id="path4328"
         d="m 12,12 588,0 0,768 -588,0 0,-768 z" />
    </clipPath>
    <clipPath
       id="clipPath4336"
       clipPathUnits="userSpaceOnUse">
      <path
         inkscape:connector-curvature="0"
         id="path4338"
         d="m 12,12 588,0 0,768 -588,0 0,-768 z" />
    </clipPath>
    <clipPath
       id="clipPath4350"
       clipPathUnits="userSpaceOnUse">
      <path
         inkscape:connector-curvature="0"
         id="path4352"
         d="m 12,12 588,0 0,768 -588,0 0,-768 z" />
    </clipPath>
    <clipPath
       id="clipPath4360"
       clipPathUnits="userSpaceOnUse">
      <path
         inkscape:connector-curvature="0"
         id="path4362"
         d="m 12,12 588,0 0,768 -588,0 0,-768 z" />
    </clipPath>
    <clipPath
       id="clipPath4374"
       clipPathUnits="userSpaceOnUse">
      <path
         inkscape:connector-curvature="0"
         id="path4376"
         d="m 12,12 588,0 0,768 -588,0 0,-768 z" />
    </clipPath>
    <clipPath
       id="clipPath4384"
       clipPathUnits="userSpaceOnUse">
      <path
         inkscape:connector-curvature="0"
         id="path4386"
         d="m 12.00001,12 588,0 0,768 -588,0 0,-768 z" />
    </clipPath>
    <clipPath
       id="clipPath4394"
       clipPathUnits="userSpaceOnUse">
      <path
         inkscape:connector-curvature="0"
         id="path4396"
         d="m 12.00001,12 588,0 0,768 -588,0 0,-768 z" />
    </clipPath>
    <clipPath
       id="clipPath4408"
       clipPathUnits="userSpaceOnUse">
      <path
         inkscape:connector-curvature="0"
         id="path4410"
         d="m 12.00001,12 588,0 0,768 -588,0 0,-768 z" />
    </clipPath>
    <clipPath
       id="clipPath4422"
       clipPathUnits="userSpaceOnUse">
      <path
         inkscape:connector-curvature="0"
         id="path4424"
         d="m 12.00001,12 588,0 0,768 -588,0 0,-768 z" />
    </clipPath>
    <clipPath
       id="clipPath4432"
       clipPathUnits="userSpaceOnUse">
      <path
         inkscape:connector-curvature="0"
         id="path4434"
         d="m 12.00001,12 588,0 0,768 -588,0 0,-768 z" />
    </clipPath>
    <clipPath
       id="clipPath4446"
       clipPathUnits="userSpaceOnUse">
      <path
         inkscape:connector-curvature="0"
         id="path4448"
         d="m 12.00001,12 588,0 0,768 -588,0 0,-768 z" />
    </clipPath>
    <clipPath
       id="clipPath4456"
       clipPathUnits="userSpaceOnUse">
      <path
         inkscape:connector-curvature="0"
         id="path4458"
         d="m 12.00001,12 588,0 0,768 -588,0 0,-768 z" />
    </clipPath>
    <clipPath
       id="clipPath4470"
       clipPathUnits="userSpaceOnUse">
      <path
         inkscape:connector-curvature="0"
         id="path4472"
         d="m 12.00001,12 588,0 0,768 -588,0 0,-768 z" />
    </clipPath>
    <clipPath
       id="clipPath4484"
       clipPathUnits="userSpaceOnUse">
      <path
         inkscape:connector-curvature="0"
         id="path4486"
         d="m 12.00001,12 588,0 0,768 -588,0 0,-768 z" />
    </clipPath>
    <clipPath
       id="clipPath4498"
       clipPathUnits="userSpaceOnUse">
      <path
         inkscape:connector-curvature="0"
         id="path4500"
         d="m 12.00002,12 588,0 0,768 -588,0 0,-768 z" />
    </clipPath>
    <clipPath
       id="clipPath4512"
       clipPathUnits="userSpaceOnUse">
      <path
         inkscape:connector-curvature="0"
         id="path4514"
         d="m 12.00002,12 588,0 0,768 -588,0 0,-768 z" />
    </clipPath>
    <clipPath
       id="clipPath4526"
       clipPathUnits="userSpaceOnUse">
      <path
         inkscape:connector-curvature="0"
         id="path4528"
         d="m 12.00002,12 588,0 0,768 -588,0 0,-768 z" />
    </clipPath>
    <clipPath
       id="clipPath4540"
       clipPathUnits="userSpaceOnUse">
      <path
         inkscape:connector-curvature="0"
         id="path4542"
         d="m 12.00002,12 588,0 0,768 -588,0 0,-768 z" />
    </clipPath>
    <clipPath
       id="clipPath4554"
       clipPathUnits="userSpaceOnUse">
      <path
         inkscape:connector-curvature="0"
         id="path4556"
         d="m 12.00002,12 588,0 0,768 -588,0 0,-768 z" />
    </clipPath>
    <clipPath
       id="clipPath4564"
       clipPathUnits="userSpaceOnUse">
      <path
         inkscape:connector-curvature="0"
         id="path4566"
         d="m 12.00002,12 588,0 0,768 -588,0 0,-768 z" />
    </clipPath>
    <clipPath
       id="clipPath4578"
       clipPathUnits="userSpaceOnUse">
      <path
         inkscape:connector-curvature="0"
         id="path4580"
         d="m 12.00002,12 588,0 0,768 -588,0 0,-768 z" />
    </clipPath>
    <clipPath
       id="clipPath4588"
       clipPathUnits="userSpaceOnUse">
      <path
         inkscape:connector-curvature="0"
         id="path4590"
         d="m 12.00002,12 588,0 0,768 -588,0 0,-768 z" />
    </clipPath>
    <clipPath
       id="clipPath4602"
       clipPathUnits="userSpaceOnUse">
      <path
         inkscape:connector-curvature="0"
         id="path4604"
         d="m 12.00002,12 588,0 0,768 -588,0 0,-768 z" />
    </clipPath>
    <clipPath
       id="clipPath4616"
       clipPathUnits="userSpaceOnUse">
      <path
         inkscape:connector-curvature="0"
         id="path4618"
         d="m 12.00002,12 588,0 0,768 -588,0 0,-768 z" />
    </clipPath>
    <clipPath
       id="clipPath4626"
       clipPathUnits="userSpaceOnUse">
      <path
         inkscape:connector-curvature="0"
         id="path4628"
         d="m 12.00002,12 588,0 0,768 -588,0 0,-768 z" />
    </clipPath>
    <clipPath
       id="clipPath4640"
       clipPathUnits="userSpaceOnUse">
      <path
         inkscape:connector-curvature="0"
         id="path4642"
         d="m 12.00002,12 588,0 0,768 -588,0 0,-768 z" />
    </clipPath>
    <clipPath
       id="clipPath4654"
       clipPathUnits="userSpaceOnUse">
      <path
         inkscape:connector-curvature="0"
         id="path4656"
         d="m 12.00002,12 588,0 0,768 -588,0 0,-768 z" />
    </clipPath>
    <clipPath
       id="clipPath4664"
       clipPathUnits="userSpaceOnUse">
      <path
         inkscape:connector-curvature="0"
         id="path4666"
         d="m 12.00002,12 588,0 0,768 -588,0 0,-768 z" />
    </clipPath>
    <clipPath
       id="clipPath4678"
       clipPathUnits="userSpaceOnUse">
      <path
         inkscape:connector-curvature="0"
         id="path4680"
         d="m 12.00002,12 588,0 0,768 -588,0 0,-768 z" />
    </clipPath>
    <clipPath
       id="clipPath4692"
       clipPathUnits="userSpaceOnUse">
      <path
         inkscape:connector-curvature="0"
         id="path4694"
         d="m 12.00002,12 588,0 0,768 -588,0 0,-768 z" />
    </clipPath>
    <clipPath
       id="clipPath4702"
       clipPathUnits="userSpaceOnUse">
      <path
         inkscape:connector-curvature="0"
         id="path4704"
         d="m 12.00002,12 588,0 0,768 -588,0 0,-768 z" />
    </clipPath>
    <clipPath
       id="clipPath4716"
       clipPathUnits="userSpaceOnUse">
      <path
         inkscape:connector-curvature="0"
         id="path4718"
         d="m 12.00002,12 588,0 0,768 -588,0 0,-768 z" />
    </clipPath>
    <clipPath
       id="clipPath4730"
       clipPathUnits="userSpaceOnUse">
      <path
         inkscape:connector-curvature="0"
         id="path4732"
         d="m 12.00002,12 588,0 0,768 -588,0 0,-768 z" />
    </clipPath>
    <clipPath
       id="clipPath4744"
       clipPathUnits="userSpaceOnUse">
      <path
         inkscape:connector-curvature="0"
         id="path4746"
         d="m 12.00002,12 588,0 0,768 -588,0 0,-768 z" />
    </clipPath>
    <clipPath
       id="clipPath4758"
       clipPathUnits="userSpaceOnUse">
      <path
         inkscape:connector-curvature="0"
         id="path4760"
         d="m 12.00002,12 588,0 0,768 -588,0 0,-768 z" />
    </clipPath>
    <clipPath
       id="clipPath4772"
       clipPathUnits="userSpaceOnUse">
      <path
         inkscape:connector-curvature="0"
         id="path4774"
         d="m 12.00002,12 588,0 0,768 -588,0 0,-768 z" />
    </clipPath>
    <clipPath
       id="clipPath4786"
       clipPathUnits="userSpaceOnUse">
      <path
         inkscape:connector-curvature="0"
         id="path4788"
         d="m 12.00002,12 588,0 0,768 -588,0 0,-768 z" />
    </clipPath>
    <clipPath
       id="clipPath4800"
       clipPathUnits="userSpaceOnUse">
      <path
         inkscape:connector-curvature="0"
         id="path4802"
         d="m 12.00002,12 588,0 0,768 -588,0 0,-768 z" />
    </clipPath>
    <clipPath
       id="clipPath4810"
       clipPathUnits="userSpaceOnUse">
      <path
         inkscape:connector-curvature="0"
         id="path4812"
         d="m 12.00002,12 588,0 0,768 -588,0 0,-768 z" />
    </clipPath>
    <clipPath
       id="clipPath4820"
       clipPathUnits="userSpaceOnUse">
      <path
         inkscape:connector-curvature="0"
         id="path4822"
         d="m 12.00003,12 587.9999,0 0,768 -587.9999,0 0,-768 z" />
    </clipPath>
    <clipPath
       id="clipPath4834"
       clipPathUnits="userSpaceOnUse">
      <path
         inkscape:connector-curvature="0"
         id="path4836"
         d="m 12.00003,12 587.9999,0 0,768 -587.9999,0 0,-768 z" />
    </clipPath>
    <clipPath
       id="clipPath4848"
       clipPathUnits="userSpaceOnUse">
      <path
         inkscape:connector-curvature="0"
         id="path4850"
         d="m 12.00003,12 587.9999,0 0,768 -587.9999,0 0,-768 z" />
    </clipPath>
    <clipPath
       id="clipPath4862"
       clipPathUnits="userSpaceOnUse">
      <path
         inkscape:connector-curvature="0"
         id="path4864"
         d="m 12.00003,12 587.9999,0 0,768 -587.9999,0 0,-768 z" />
    </clipPath>
    <clipPath
       id="clipPath4876"
       clipPathUnits="userSpaceOnUse">
      <path
         inkscape:connector-curvature="0"
         id="path4878"
         d="m 12.00003,12 587.9999,0 0,768 -587.9999,0 0,-768 z" />
    </clipPath>
    <clipPath
       id="clipPath4886"
       clipPathUnits="userSpaceOnUse">
      <path
         inkscape:connector-curvature="0"
         id="path4888"
         d="m 12.00003,12 587.9999,0 0,768 -587.9999,0 0,-768 z" />
    </clipPath>
    <clipPath
       id="clipPath4900"
       clipPathUnits="userSpaceOnUse">
      <path
         inkscape:connector-curvature="0"
         id="path4902"
         d="m 12.00003,12 587.9999,0 0,768 -587.9999,0 0,-768 z" />
    </clipPath>
    <clipPath
       id="clipPath4914"
       clipPathUnits="userSpaceOnUse">
      <path
         inkscape:connector-curvature="0"
         id="path4916"
         d="m 12.00003,12 587.9999,0 0,768 -587.9999,0 0,-768 z" />
    </clipPath>
    <clipPath
       id="clipPath4924"
       clipPathUnits="userSpaceOnUse">
      <path
         inkscape:connector-curvature="0"
         id="path4926"
         d="m 12.00003,12 587.9999,0 0,768 -587.9999,0 0,-768 z" />
    </clipPath>
    <clipPath
       id="clipPath4938"
       clipPathUnits="userSpaceOnUse">
      <path
         inkscape:connector-curvature="0"
         id="path4940"
         d="m 12.00004,12 587.9999,0 0,768 -587.9999,0 0,-768 z" />
    </clipPath>
    <clipPath
       id="clipPath4952"
       clipPathUnits="userSpaceOnUse">
      <path
         inkscape:connector-curvature="0"
         id="path4954"
         d="m 12.00004,12 587.9999,0 0,768 -587.9999,0 0,-768 z" />
    </clipPath>
    <clipPath
       id="clipPath4966"
       clipPathUnits="userSpaceOnUse">
      <path
         inkscape:connector-curvature="0"
         id="path4968"
         d="m 12.00004,12 587.9999,0 0,768 -587.9999,0 0,-768 z" />
    </clipPath>
    <clipPath
       id="clipPath4980"
       clipPathUnits="userSpaceOnUse">
      <path
         inkscape:connector-curvature="0"
         id="path4982"
         d="m 12.00004,12 587.9999,0 0,768 -587.9999,0 0,-768 z" />
    </clipPath>
    <clipPath
       id="clipPath4990"
       clipPathUnits="userSpaceOnUse">
      <path
         inkscape:connector-curvature="0"
         id="path4992"
         d="m 12.00004,12 587.9999,0 0,768 -587.9999,0 0,-768 z" />
    </clipPath>
    <clipPath
       id="clipPath5004"
       clipPathUnits="userSpaceOnUse">
      <path
         inkscape:connector-curvature="0"
         id="path5006"
         d="m 12.00004,12 587.9999,0 0,768 -587.9999,0 0,-768 z" />
    </clipPath>
    <clipPath
       id="clipPath5014"
       clipPathUnits="userSpaceOnUse">
      <path
         inkscape:connector-curvature="0"
         id="path5016"
         d="m 12.00004,12 587.9999,0 0,768 -587.9999,0 0,-768 z" />
    </clipPath>
    <clipPath
       id="clipPath5028"
       clipPathUnits="userSpaceOnUse">
      <path
         inkscape:connector-curvature="0"
         id="path5030"
         d="m 12.00005,12 587.9999,0 0,768 -587.9999,0 0,-768 z" />
    </clipPath>
    <clipPath
       id="clipPath5042"
       clipPathUnits="userSpaceOnUse">
      <path
         inkscape:connector-curvature="0"
         id="path5044"
         d="m 12.00005,12 587.9999,0 0,768 -587.9999,0 0,-768 z" />
    </clipPath>
    <clipPath
       id="clipPath5052"
       clipPathUnits="userSpaceOnUse">
      <path
         inkscape:connector-curvature="0"
         id="path5054"
         d="m 12.00005,12 587.9999,0 0,768 -587.9999,0 0,-768 z" />
    </clipPath>
    <clipPath
       id="clipPath5066"
       clipPathUnits="userSpaceOnUse">
      <path
         inkscape:connector-curvature="0"
         id="path5068"
         d="m 12.00005,12 587.9999,0 0,768 -587.9999,0 0,-768 z" />
    </clipPath>
    <clipPath
       id="clipPath5076"
       clipPathUnits="userSpaceOnUse">
      <path
         inkscape:connector-curvature="0"
         id="path5078"
         d="m 12.00005,12 587.9999,0 0,768 -587.9999,0 0,-768 z" />
    </clipPath>
    <clipPath
       id="clipPath5090"
       clipPathUnits="userSpaceOnUse">
      <path
         inkscape:connector-curvature="0"
         id="path5092"
         d="m 12.00005,12 587.9999,0 0,768 -587.9999,0 0,-768 z" />
    </clipPath>
    <clipPath
       id="clipPath5100"
       clipPathUnits="userSpaceOnUse">
      <path
         inkscape:connector-curvature="0"
         id="path5102"
         d="m 12.00005,12 587.9999,0 0,768 -587.9999,0 0,-768 z" />
    </clipPath>
    <clipPath
       id="clipPath5114"
       clipPathUnits="userSpaceOnUse">
      <path
         inkscape:connector-curvature="0"
         id="path5116"
         d="m 12.00005,12 587.9999,0 0,768 -587.9999,0 0,-768 z" />
    </clipPath>
    <clipPath
       id="clipPath5124"
       clipPathUnits="userSpaceOnUse">
      <path
         inkscape:connector-curvature="0"
         id="path5126"
         d="m 12.00005,12 587.9999,0 0,768 -587.9999,0 0,-768 z" />
    </clipPath>
    <clipPath
       id="clipPath5138"
       clipPathUnits="userSpaceOnUse">
      <path
         inkscape:connector-curvature="0"
         id="path5140"
         d="m 12.00005,12 587.9999,0 0,768 -587.9999,0 0,-768 z" />
    </clipPath>
    <clipPath
       id="clipPath5148"
       clipPathUnits="userSpaceOnUse">
      <path
         inkscape:connector-curvature="0"
         id="path5150"
         d="m 12.00005,12 587.9999,0 0,768 -587.9999,0 0,-768 z" />
    </clipPath>
    <clipPath
       id="clipPath5158"
       clipPathUnits="userSpaceOnUse">
      <path
         inkscape:connector-curvature="0"
         id="path5160"
         d="m 12.00005,12 587.9999,0 0,768 -587.9999,0 0,-768 z" />
    </clipPath>
    <clipPath
       id="clipPath5172"
       clipPathUnits="userSpaceOnUse">
      <path
         inkscape:connector-curvature="0"
         id="path5174"
         d="m 12.00005,12 587.9999,0 0,768 -587.9999,0 0,-768 z" />
    </clipPath>
    <clipPath
       id="clipPath5182"
       clipPathUnits="userSpaceOnUse">
      <path
         inkscape:connector-curvature="0"
         id="path5184"
         d="m 12.00005,12 587.9999,0 0,768 -587.9999,0 0,-768 z" />
    </clipPath>
    <clipPath
       id="clipPath5192"
       clipPathUnits="userSpaceOnUse">
      <path
         inkscape:connector-curvature="0"
         id="path5194"
         d="m 12.00005,12 587.9999,0 0,768 -587.9999,0 0,-768 z" />
    </clipPath>
    <clipPath
       id="clipPath5202"
       clipPathUnits="userSpaceOnUse">
      <path
         inkscape:connector-curvature="0"
         id="path5204"
         d="m 12.00005,12 587.9999,0 0,768 -587.9999,0 0,-768 z" />
    </clipPath>
    <clipPath
       id="clipPath5216-6"
       clipPathUnits="userSpaceOnUse">
      <path
         inkscape:connector-curvature="0"
         id="path5218-6"
         d="m 12.00005,12 587.9999,0 0,768 -587.9999,0 0,-768 z" />
    </clipPath>
    <clipPath
       id="clipPath5226"
       clipPathUnits="userSpaceOnUse">
      <path
         inkscape:connector-curvature="0"
         id="path5228"
         d="m 12.00005,12 587.9999,0 0,768 -587.9999,0 0,-768 z" />
    </clipPath>
    <clipPath
       id="clipPath5236"
       clipPathUnits="userSpaceOnUse">
      <path
         inkscape:connector-curvature="0"
         id="path5238"
         d="m 12.00005,12 587.9999,0 0,768 -587.9999,0 0,-768 z" />
    </clipPath>
    <clipPath
       id="clipPath5246"
       clipPathUnits="userSpaceOnUse">
      <path
         inkscape:connector-curvature="0"
         id="path5248"
         d="m 12.00005,12 587.9999,0 0,768 -587.9999,0 0,-768 z" />
    </clipPath>
    <clipPath
       id="clipPath5256"
       clipPathUnits="userSpaceOnUse">
      <path
         inkscape:connector-curvature="0"
         id="path5258"
         d="m 12.00005,12 587.9999,0 0,768 -587.9999,0 0,-768 z" />
    </clipPath>
    <clipPath
       id="clipPath5266"
       clipPathUnits="userSpaceOnUse">
      <path
         inkscape:connector-curvature="0"
         id="path5268"
         d="m 12.00005,12 587.9999,0 0,768 -587.9999,0 0,-768 z" />
    </clipPath>
    <clipPath
       id="clipPath5276"
       clipPathUnits="userSpaceOnUse">
      <path
         inkscape:connector-curvature="0"
         id="path5278"
         d="m 12.00005,12 587.9999,0 0,768 -587.9999,0 0,-768 z" />
    </clipPath>
    <clipPath
       id="clipPath5286"
       clipPathUnits="userSpaceOnUse">
      <path
         inkscape:connector-curvature="0"
         id="path5288"
         d="m 12.00005,12 587.9999,0 0,768 -587.9999,0 0,-768 z" />
    </clipPath>
    <clipPath
       id="clipPath5300"
       clipPathUnits="userSpaceOnUse">
      <path
         inkscape:connector-curvature="0"
         id="path5302"
         d="m 12.00005,12 587.9999,0 0,768 -587.9999,0 0,-768 z" />
    </clipPath>
    <clipPath
       id="clipPath5310"
       clipPathUnits="userSpaceOnUse">
      <path
         inkscape:connector-curvature="0"
         id="path5312"
         d="m 12.00005,12 587.9999,0 0,768 -587.9999,0 0,-768 z" />
    </clipPath>
    <clipPath
       id="clipPath5320"
       clipPathUnits="userSpaceOnUse">
      <path
         inkscape:connector-curvature="0"
         id="path5322"
         d="m 12.00005,12 587.9999,0 0,768 -587.9999,0 0,-768 z" />
    </clipPath>
    <clipPath
       id="clipPath5330"
       clipPathUnits="userSpaceOnUse">
      <path
         inkscape:connector-curvature="0"
         id="path5332"
         d="m 12.00005,12 587.9999,0 0,768 -587.9999,0 0,-768 z" />
    </clipPath>
    <clipPath
       id="clipPath5344"
       clipPathUnits="userSpaceOnUse">
      <path
         inkscape:connector-curvature="0"
         id="path5346"
         d="m 12.00005,12 587.9999,0 0,768 -587.9999,0 0,-768 z" />
    </clipPath>
    <clipPath
       id="clipPath5358"
       clipPathUnits="userSpaceOnUse">
      <path
         inkscape:connector-curvature="0"
         id="path5360"
         d="m 12.00005,12 587.9999,0 0,768 -587.9999,0 0,-768 z" />
    </clipPath>
    <clipPath
       id="clipPath5368"
       clipPathUnits="userSpaceOnUse">
      <path
         inkscape:connector-curvature="0"
         id="path5370"
         d="m 12.00005,12 587.9999,0 0,768 -587.9999,0 0,-768 z" />
    </clipPath>
    <clipPath
       id="clipPath5378"
       clipPathUnits="userSpaceOnUse">
      <path
         inkscape:connector-curvature="0"
         id="path5380"
         d="m 12.00005,12 587.9999,0 0,768 -587.9999,0 0,-768 z" />
    </clipPath>
    <clipPath
       id="clipPath5388"
       clipPathUnits="userSpaceOnUse">
      <path
         inkscape:connector-curvature="0"
         id="path5390"
         d="m 12.00005,12 587.9999,0 0,768 -587.9999,0 0,-768 z" />
    </clipPath>
    <clipPath
       id="clipPath5398"
       clipPathUnits="userSpaceOnUse">
      <path
         inkscape:connector-curvature="0"
         id="path5400"
         d="m 12.00005,12 587.9999,0 0,768 -587.9999,0 0,-768 z" />
    </clipPath>
    <clipPath
       id="clipPath5408"
       clipPathUnits="userSpaceOnUse">
      <path
         inkscape:connector-curvature="0"
         id="path5410"
         d="m 12.00005,12 587.9999,0 0,768 -587.9999,0 0,-768 z" />
    </clipPath>
    <clipPath
       id="clipPath5418"
       clipPathUnits="userSpaceOnUse">
      <path
         inkscape:connector-curvature="0"
         id="path5420"
         d="m 12.00005,12 587.9999,0 0,768 -587.9999,0 0,-768 z" />
    </clipPath>
    <clipPath
       id="clipPath5428"
       clipPathUnits="userSpaceOnUse">
      <path
         inkscape:connector-curvature="0"
         id="path5430"
         d="m 12.00005,12 587.9999,0 0,768 -587.9999,0 0,-768 z" />
    </clipPath>
    <clipPath
       id="clipPath5442"
       clipPathUnits="userSpaceOnUse">
      <path
         inkscape:connector-curvature="0"
         id="path5444"
         d="m 12.00005,12 587.9999,0 0,768 -587.9999,0 0,-768 z" />
    </clipPath>
    <clipPath
       id="clipPath5452"
       clipPathUnits="userSpaceOnUse">
      <path
         inkscape:connector-curvature="0"
         id="path5454"
         d="m 12.00005,12 587.9999,0 0,768 -587.9999,0 0,-768 z" />
    </clipPath>
    <clipPath
       id="clipPath5462"
       clipPathUnits="userSpaceOnUse">
      <path
         inkscape:connector-curvature="0"
         id="path5464"
         d="m 12.00005,12 587.9999,0 0,768 -587.9999,0 0,-768 z" />
    </clipPath>
    <clipPath
       id="clipPath5472"
       clipPathUnits="userSpaceOnUse">
      <path
         inkscape:connector-curvature="0"
         id="path5474"
         d="m 12.00005,12 587.9999,0 0,768 -587.9999,0 0,-768 z" />
    </clipPath>
    <clipPath
       id="clipPath5486"
       clipPathUnits="userSpaceOnUse">
      <path
         inkscape:connector-curvature="0"
         id="path5488"
         d="m 12.00005,12 587.9999,0 0,768 -587.9999,0 0,-768 z" />
    </clipPath>
    <clipPath
       id="clipPath5500"
       clipPathUnits="userSpaceOnUse">
      <path
         inkscape:connector-curvature="0"
         id="path5502"
         d="m 12.00005,12 587.9999,0 0,768 -587.9999,0 0,-768 z" />
    </clipPath>
    <clipPath
       id="clipPath5514"
       clipPathUnits="userSpaceOnUse">
      <path
         inkscape:connector-curvature="0"
         id="path5516"
         d="m 12.00005,12 587.9999,0 0,768 -587.9999,0 0,-768 z" />
    </clipPath>
    <clipPath
       id="clipPath5524"
       clipPathUnits="userSpaceOnUse">
      <path
         inkscape:connector-curvature="0"
         id="path5526"
         d="m 12.00005,12 587.9999,0 0,768 -587.9999,0 0,-768 z" />
    </clipPath>
    <clipPath
       id="clipPath5534"
       clipPathUnits="userSpaceOnUse">
      <path
         inkscape:connector-curvature="0"
         id="path5536"
         d="m 12.00005,12 587.9999,0 0,768 -587.9999,0 0,-768 z" />
    </clipPath>
    <clipPath
       id="clipPath5544"
       clipPathUnits="userSpaceOnUse">
      <path
         inkscape:connector-curvature="0"
         id="path5546"
         d="m 12.00005,12 587.9999,0 0,768 -587.9999,0 0,-768 z" />
    </clipPath>
    <clipPath
       id="clipPath5554"
       clipPathUnits="userSpaceOnUse">
      <path
         inkscape:connector-curvature="0"
         id="path5556"
         d="m 12.00005,12 587.9999,0 0,768 -587.9999,0 0,-768 z" />
    </clipPath>
    <clipPath
       id="clipPath5564"
       clipPathUnits="userSpaceOnUse">
      <path
         inkscape:connector-curvature="0"
         id="path5566"
         d="m 12.00005,12 587.9999,0 0,768 -587.9999,0 0,-768 z" />
    </clipPath>
    <clipPath
       id="clipPath5574"
       clipPathUnits="userSpaceOnUse">
      <path
         inkscape:connector-curvature="0"
         id="path5576"
         d="m 12.00005,12 587.9999,0 0,768 -587.9999,0 0,-768 z" />
    </clipPath>
    <clipPath
       id="clipPath5588"
       clipPathUnits="userSpaceOnUse">
      <path
         inkscape:connector-curvature="0"
         id="path5590"
         d="m 12.00005,12 587.9999,0 0,768 -587.9999,0 0,-768 z" />
    </clipPath>
    <clipPath
       id="clipPath5598"
       clipPathUnits="userSpaceOnUse">
      <path
         inkscape:connector-curvature="0"
         id="path5600"
         d="m 12.00005,12 587.9999,0 0,768 -587.9999,0 0,-768 z" />
    </clipPath>
    <clipPath
       id="clipPath5608"
       clipPathUnits="userSpaceOnUse">
      <path
         inkscape:connector-curvature="0"
         id="path5610"
         d="m 12.00005,12 587.9999,0 0,768 -587.9999,0 0,-768 z" />
    </clipPath>
    <clipPath
       id="clipPath5618"
       clipPathUnits="userSpaceOnUse">
      <path
         inkscape:connector-curvature="0"
         id="path5620"
         d="m 12.00005,12 587.9999,0 0,768 -587.9999,0 0,-768 z" />
    </clipPath>
    <clipPath
       id="clipPath5632"
       clipPathUnits="userSpaceOnUse">
      <path
         inkscape:connector-curvature="0"
         id="path5634"
         d="m 12.00005,12 587.9999,0 0,768 -587.9999,0 0,-768 z" />
    </clipPath>
    <clipPath
       id="clipPath5642"
       clipPathUnits="userSpaceOnUse">
      <path
         inkscape:connector-curvature="0"
         id="path5644"
         d="m 12.00005,12 587.9999,0 0,768 -587.9999,0 0,-768 z" />
    </clipPath>
    <clipPath
       id="clipPath5652"
       clipPathUnits="userSpaceOnUse">
      <path
         inkscape:connector-curvature="0"
         id="path5654"
         d="m 12.00005,12 587.9999,0 0,768 -587.9999,0 0,-768 z" />
    </clipPath>
    <clipPath
       id="clipPath5662"
       clipPathUnits="userSpaceOnUse">
      <path
         inkscape:connector-curvature="0"
         id="path5664"
         d="m 12.00005,12 587.9999,0 0,768 -587.9999,0 0,-768 z" />
    </clipPath>
    <clipPath
       id="clipPath5672"
       clipPathUnits="userSpaceOnUse">
      <path
         inkscape:connector-curvature="0"
         id="path5674"
         d="m 12.00005,12 587.9999,0 0,768 -587.9999,0 0,-768 z" />
    </clipPath>
    <clipPath
       id="clipPath5682"
       clipPathUnits="userSpaceOnUse">
      <path
         inkscape:connector-curvature="0"
         id="path5684"
         d="m 12.00005,12 587.9999,0 0,768 -587.9999,0 0,-768 z" />
    </clipPath>
    <clipPath
       id="clipPath5692-9"
       clipPathUnits="userSpaceOnUse">
      <path
         inkscape:connector-curvature="0"
         id="path5694-5"
         d="m 12.00005,12 587.9999,0 0,768 -587.9999,0 0,-768 z" />
    </clipPath>
    <clipPath
       id="clipPath5702"
       clipPathUnits="userSpaceOnUse">
      <path
         inkscape:connector-curvature="0"
         id="path5704"
         d="m 12.00005,12 587.9999,0 0,768 -587.9999,0 0,-768 z" />
    </clipPath>
    <clipPath
       id="clipPath5712"
       clipPathUnits="userSpaceOnUse">
      <path
         inkscape:connector-curvature="0"
         id="path5714"
         d="m 12.00005,12 587.9999,0 0,768 -587.9999,0 0,-768 z" />
    </clipPath>
    <clipPath
       id="clipPath5726"
       clipPathUnits="userSpaceOnUse">
      <path
         inkscape:connector-curvature="0"
         id="path5728"
         d="m 12.00005,12 587.9999,0 0,768 -587.9999,0 0,-768 z" />
    </clipPath>
    <clipPath
       id="clipPath5736"
       clipPathUnits="userSpaceOnUse">
      <path
         inkscape:connector-curvature="0"
         id="path5738"
         d="m 12.00005,12 587.9999,0 0,768 -587.9999,0 0,-768 z" />
    </clipPath>
    <clipPath
       id="clipPath5746"
       clipPathUnits="userSpaceOnUse">
      <path
         inkscape:connector-curvature="0"
         id="path5748"
         d="m 12.00005,12 587.9999,0 0,768 -587.9999,0 0,-768 z" />
    </clipPath>
    <clipPath
       id="clipPath5756"
       clipPathUnits="userSpaceOnUse">
      <path
         inkscape:connector-curvature="0"
         id="path5758"
         d="m 12.00005,12 587.9999,0 0,768 -587.9999,0 0,-768 z" />
    </clipPath>
    <clipPath
       id="clipPath5770"
       clipPathUnits="userSpaceOnUse">
      <path
         inkscape:connector-curvature="0"
         id="path5772"
         d="m 12.00005,12 587.9999,0 0,768 -587.9999,0 0,-768 z" />
    </clipPath>
    <clipPath
       id="clipPath5780"
       clipPathUnits="userSpaceOnUse">
      <path
         inkscape:connector-curvature="0"
         id="path5782"
         d="m 12.00005,12 587.9999,0 0,768 -587.9999,0 0,-768 z" />
    </clipPath>
    <clipPath
       id="clipPath5790"
       clipPathUnits="userSpaceOnUse">
      <path
         inkscape:connector-curvature="0"
         id="path5792"
         d="m 12.00005,12 587.9999,0 0,768 -587.9999,0 0,-768 z" />
    </clipPath>
    <clipPath
       id="clipPath5800"
       clipPathUnits="userSpaceOnUse">
      <path
         inkscape:connector-curvature="0"
         id="path5802"
         d="m 12.00005,12 587.9999,0 0,768 -587.9999,0 0,-768 z" />
    </clipPath>
    <clipPath
       id="clipPath5810"
       clipPathUnits="userSpaceOnUse">
      <path
         inkscape:connector-curvature="0"
         id="path5812"
         d="m 12.00005,12 587.9999,0 0,768 -587.9999,0 0,-768 z" />
    </clipPath>
    <clipPath
       id="clipPath5820"
       clipPathUnits="userSpaceOnUse">
      <path
         inkscape:connector-curvature="0"
         id="path5822"
         d="m 12.00005,12 587.9999,0 0,768 -587.9999,0 0,-768 z" />
    </clipPath>
    <clipPath
       id="clipPath5830"
       clipPathUnits="userSpaceOnUse">
      <path
         inkscape:connector-curvature="0"
         id="path5832"
         d="m 12.00005,12 587.9999,0 0,768 -587.9999,0 0,-768 z" />
    </clipPath>
    <clipPath
       id="clipPath5840"
       clipPathUnits="userSpaceOnUse">
      <path
         inkscape:connector-curvature="0"
         id="path5842"
         d="m 12.00005,12 587.9999,0 0,768 -587.9999,0 0,-768 z" />
    </clipPath>
    <clipPath
       id="clipPath5850"
       clipPathUnits="userSpaceOnUse">
      <path
         inkscape:connector-curvature="0"
         id="path5852"
         d="m 12.00005,12 587.9999,0 0,768 -587.9999,0 0,-768 z" />
    </clipPath>
    <clipPath
       id="clipPath5864"
       clipPathUnits="userSpaceOnUse">
      <path
         inkscape:connector-curvature="0"
         id="path5866"
         d="m 12.00005,12 587.9999,0 0,768 -587.9999,0 0,-768 z" />
    </clipPath>
    <clipPath
       id="clipPath5878"
       clipPathUnits="userSpaceOnUse">
      <path
         inkscape:connector-curvature="0"
         id="path5880"
         d="m 12.00005,12 587.9999,0 0,768 -587.9999,0 0,-768 z" />
    </clipPath>
    <clipPath
       id="clipPath5888"
       clipPathUnits="userSpaceOnUse">
      <path
         inkscape:connector-curvature="0"
         id="path5890"
         d="m 12.00005,12 587.9999,0 0,768 -587.9999,0 0,-768 z" />
    </clipPath>
    <clipPath
       id="clipPath5898"
       clipPathUnits="userSpaceOnUse">
      <path
         inkscape:connector-curvature="0"
         id="path5900"
         d="m 12.00005,12 587.9999,0 0,768 -587.9999,0 0,-768 z" />
    </clipPath>
    <clipPath
       id="clipPath5912"
       clipPathUnits="userSpaceOnUse">
      <path
         inkscape:connector-curvature="0"
         id="path5914"
         d="m 12.00005,12 587.9999,0 0,768 -587.9999,0 0,-768 z" />
    </clipPath>
    <clipPath
       id="clipPath5922"
       clipPathUnits="userSpaceOnUse">
      <path
         inkscape:connector-curvature="0"
         id="path5924"
         d="m 12.00005,12 587.9999,0 0,768 -587.9999,0 0,-768 z" />
    </clipPath>
    <clipPath
       id="clipPath5932"
       clipPathUnits="userSpaceOnUse">
      <path
         inkscape:connector-curvature="0"
         id="path5934"
         d="m 12.00005,12 587.9999,0 0,768 -587.9999,0 0,-768 z" />
    </clipPath>
    <clipPath
       id="clipPath5942"
       clipPathUnits="userSpaceOnUse">
      <path
         inkscape:connector-curvature="0"
         id="path5944"
         d="m 12.00005,12 587.9999,0 0,768 -587.9999,0 0,-768 z" />
    </clipPath>
    <clipPath
       id="clipPath5952"
       clipPathUnits="userSpaceOnUse">
      <path
         inkscape:connector-curvature="0"
         id="path5954"
         d="m 12.00005,12 587.9999,0 0,768 -587.9999,0 0,-768 z" />
    </clipPath>
    <clipPath
       id="clipPath5962"
       clipPathUnits="userSpaceOnUse">
      <path
         inkscape:connector-curvature="0"
         id="path5964"
         d="m 12.00005,12 587.9999,0 0,768 -587.9999,0 0,-768 z" />
    </clipPath>
    <clipPath
       id="clipPath5972"
       clipPathUnits="userSpaceOnUse">
      <path
         inkscape:connector-curvature="0"
         id="path5974"
         d="m 12.00005,12 587.9999,0 0,768 -587.9999,0 0,-768 z" />
    </clipPath>
    <clipPath
       id="clipPath5982"
       clipPathUnits="userSpaceOnUse">
      <path
         inkscape:connector-curvature="0"
         id="path5984"
         d="m 12.00005,12 587.9999,0 0,768 -587.9999,0 0,-768 z" />
    </clipPath>
    <clipPath
       id="clipPath5992"
       clipPathUnits="userSpaceOnUse">
      <path
         inkscape:connector-curvature="0"
         id="path5994"
         d="m 12.00005,12 587.9999,0 0,768 -587.9999,0 0,-768 z" />
    </clipPath>
    <clipPath
       id="clipPath6006"
       clipPathUnits="userSpaceOnUse">
      <path
         inkscape:connector-curvature="0"
         id="path6008"
         d="m 12.00005,12 587.9999,0 0,768 -587.9999,0 0,-768 z" />
    </clipPath>
    <clipPath
       id="clipPath6020"
       clipPathUnits="userSpaceOnUse">
      <path
         inkscape:connector-curvature="0"
         id="path6022"
         d="m 12.00005,12 587.9999,0 0,768 -587.9999,0 0,-768 z" />
    </clipPath>
    <clipPath
       id="clipPath6030"
       clipPathUnits="userSpaceOnUse">
      <path
         inkscape:connector-curvature="0"
         id="path6032"
         d="m 12.00005,12 587.9999,0 0,768 -587.9999,0 0,-768 z" />
    </clipPath>
    <clipPath
       id="clipPath6040"
       clipPathUnits="userSpaceOnUse">
      <path
         inkscape:connector-curvature="0"
         id="path6042"
         d="m 12.00005,12 587.9999,0 0,768 -587.9999,0 0,-768 z" />
    </clipPath>
    <clipPath
       id="clipPath4534"
       clipPathUnits="userSpaceOnUse">
      <path
         inkscape:connector-curvature="0"
         id="path4536"
         d="M 2369.76,841.89 0,841.89 0,0 l 2369.76,0 0,841.89 z" />
    </clipPath>
    <clipPath
       id="clipPath4540-8"
       clipPathUnits="userSpaceOnUse">
      <path
         inkscape:connector-curvature="0"
         id="path4542-0"
         d="m 0,841.89 2369.76,0 L 2369.76,0 0,0 0,841.89 Z" />
    </clipPath>
    <clipPath
       id="clipPath4550"
       clipPathUnits="userSpaceOnUse">
      <path
         inkscape:connector-curvature="0"
         id="path4552"
         d="m 1930.62,853.864 -1068.266,0 0,-864.084 1068.266,0 0,864.084 z" />
    </clipPath>
    <clipPath
       id="clipPath4556"
       clipPathUnits="userSpaceOnUse">
      <path
         inkscape:connector-curvature="0"
         id="path4558"
         d="m 1184.915,-11.395 595.275,0 0,864.624 -595.275,0 0,-864.624" />
    </clipPath>
    <clipPath
       id="clipPath4562"
       clipPathUnits="userSpaceOnUse">
      <path
         inkscape:connector-curvature="0"
         id="path4564"
         d="M 2369.76,841.89 0,841.89 0,0 l 2369.76,0 0,841.89 z" />
    </clipPath>
    <clipPath
       id="clipPath4568"
       clipPathUnits="userSpaceOnUse">
      <path
         inkscape:connector-curvature="0"
         id="path4570"
         d="m 0,841.89 2369.76,0 L 2369.76,0 0,0 0,841.89 Z" />
    </clipPath>
    <clipPath
       id="clipPath4580"
       clipPathUnits="userSpaceOnUse">
      <path
         inkscape:connector-curvature="0"
         id="path4582"
         d="M 2369.76,841.89 0,841.89 0,0 l 2369.76,0 0,841.89 z" />
    </clipPath>
    <clipPath
       id="clipPath4586"
       clipPathUnits="userSpaceOnUse">
      <path
         inkscape:connector-curvature="0"
         id="path4588"
         d="m 0,841.89 2369.76,0 L 2369.76,0 0,0 0,841.89 Z" />
    </clipPath>
    <clipPath
       id="clipPath5682-3"
       clipPathUnits="userSpaceOnUse">
      <path
         inkscape:connector-curvature="0"
         id="path5684-9"
         d="m 2133.437,784.906 -0.015,1.738 0,27.659 23.035,10e-4 0,-29.197 -23.02,-0.201" />
    </clipPath>
    <clipPath
       id="clipPath5688"
       clipPathUnits="userSpaceOnUse">
      <path
         inkscape:connector-curvature="0"
         id="path5690"
         d="m 2133.439,784.63 24.168,0.211 -0.267,30.75 -24.17,-0.211 0.269,-30.75" />
    </clipPath>
    <clipPath
       id="clipPath5694"
       clipPathUnits="userSpaceOnUse">
      <path
         inkscape:connector-curvature="0"
         id="path5696"
         d="m 2133.437,784.629 -0.015,1.826 0,27.848 23.035,10e-4 0,-29.475 -23.02,-0.2" />
    </clipPath>
    <clipPath
       id="clipPath5700"
       clipPathUnits="userSpaceOnUse">
      <path
         inkscape:connector-curvature="0"
         id="path5702"
         d="M 2369.76,841.89 0,841.89 0,0 l 2369.76,0 0,841.89 z" />
    </clipPath>
    <clipPath
       id="clipPath5706"
       clipPathUnits="userSpaceOnUse">
      <path
         inkscape:connector-curvature="0"
         id="path5708"
         d="m 0,841.89 2369.76,0 L 2369.76,0 0,0 0,841.89 Z" />
    </clipPath>
    <clipPath
       id="clipPath5718"
       clipPathUnits="userSpaceOnUse">
      <path
         inkscape:connector-curvature="0"
         id="path5720"
         d="M 2369.76,841.89 0,841.89 0,0 l 2369.76,0 0,841.89 z" />
    </clipPath>
    <clipPath
       id="clipPath5724-9"
       clipPathUnits="userSpaceOnUse">
      <path
         inkscape:connector-curvature="0"
         id="path5726-9"
         d="m 0,841.89 2369.76,0 L 2369.76,0 0,0 0,841.89 Z" />
    </clipPath>
    <clipPath
       id="clipPath5736-3"
       clipPathUnits="userSpaceOnUse">
      <path
         inkscape:connector-curvature="0"
         id="path5738-3"
         d="m 2352.004,693.6 -278.476,0 0,-417.714 278.476,0 0,417.714 z" />
    </clipPath>
    <clipPath
       id="clipPath5742"
       clipPathUnits="userSpaceOnUse">
      <path
         inkscape:connector-curvature="0"
         id="path5744"
         d="m 2082.5,290.444 243.853,0 0,398.444 -243.853,0 0,-398.444" />
    </clipPath>
    <clipPath
       id="clipPath5748"
       clipPathUnits="userSpaceOnUse">
      <path
         inkscape:connector-curvature="0"
         id="path5750"
         d="M 2369.76,841.89 0,841.89 0,0 l 2369.76,0 0,841.89 z" />
    </clipPath>
    <clipPath
       id="clipPath5754"
       clipPathUnits="userSpaceOnUse">
      <path
         inkscape:connector-curvature="0"
         id="path5756"
         d="m 0,841.89 2369.76,0 L 2369.76,0 0,0 0,841.89 Z" />
    </clipPath>
    <clipPath
       id="clipPath5766"
       clipPathUnits="userSpaceOnUse">
      <path
         inkscape:connector-curvature="0"
         id="path5768"
         d="M 2369.76,841.89 0,841.89 0,0 l 2369.76,0 0,841.89 z" />
    </clipPath>
    <clipPath
       id="clipPath5772"
       clipPathUnits="userSpaceOnUse">
      <path
         inkscape:connector-curvature="0"
         id="path5774"
         d="m 0,841.89 2369.76,0 L 2369.76,0 0,0 0,841.89 Z" />
    </clipPath>
    <clipPath
       id="clipPath5890"
       clipPathUnits="userSpaceOnUse">
      <path
         inkscape:connector-curvature="0"
         id="path5892"
         d="m 549.56,775.053 -506.733,0 0,-337.64 506.733,0 0,337.64 z" />
    </clipPath>
    <clipPath
       id="clipPath5896"
       clipPathUnits="userSpaceOnUse">
      <path
         inkscape:connector-curvature="0"
         id="path5898"
         d="m 545.721,518.132 -502.671,0 0,170.756 502.671,0 0,-170.756" />
    </clipPath>
    <clipPath
       id="clipPath5902"
       clipPathUnits="userSpaceOnUse">
      <path
         inkscape:connector-curvature="0"
         id="path5904"
         d="M 2369.76,841.89 0,841.89 0,0 l 2369.76,0 0,841.89 z" />
    </clipPath>
    <clipPath
       id="clipPath5908"
       clipPathUnits="userSpaceOnUse">
      <path
         inkscape:connector-curvature="0"
         id="path5910"
         d="m 0,841.89 2369.76,0 L 2369.76,0 0,0 0,841.89 Z" />
    </clipPath>
    <clipPath
       id="clipPath5920"
       clipPathUnits="userSpaceOnUse">
      <path
         inkscape:connector-curvature="0"
         id="path5922"
         d="M 2369.76,841.89 0,841.89 0,0 l 2369.76,0 0,841.89 z" />
    </clipPath>
    <clipPath
       id="clipPath5926"
       clipPathUnits="userSpaceOnUse">
      <path
         inkscape:connector-curvature="0"
         id="path5928"
         d="m 0,841.89 2369.76,0 L 2369.76,0 0,0 0,841.89 Z" />
    </clipPath>
    <clipPath
       id="clipPath6010"
       clipPathUnits="userSpaceOnUse">
      <path
         inkscape:connector-curvature="0"
         id="path6012"
         d="m 352.847,784.906 -0.015,1.738 0,27.659 23.036,10e-4 0,-29.197 -23.021,-0.201" />
    </clipPath>
    <clipPath
       id="clipPath6016"
       clipPathUnits="userSpaceOnUse">
      <path
         inkscape:connector-curvature="0"
         id="path6018"
         d="m 352.85,784.63 24.168,0.211 -0.268,30.75 -24.17,-0.211 0.27,-30.75" />
    </clipPath>
    <clipPath
       id="clipPath6022"
       clipPathUnits="userSpaceOnUse">
      <path
         inkscape:connector-curvature="0"
         id="path6024"
         d="m 352.848,784.629 -0.016,1.826 0,27.848 23.036,10e-4 0,-29.475 -23.02,-0.2" />
    </clipPath>
    <clipPath
       id="clipPath6028"
       clipPathUnits="userSpaceOnUse">
      <path
         inkscape:connector-curvature="0"
         id="path6030"
         d="M 2369.76,841.89 0,841.89 0,0 l 2369.76,0 0,841.89 z" />
    </clipPath>
    <clipPath
       id="clipPath6034"
       clipPathUnits="userSpaceOnUse">
      <path
         inkscape:connector-curvature="0"
         id="path6036"
         d="m 0,841.89 2369.76,0 L 2369.76,0 0,0 0,841.89 Z" />
    </clipPath>
  </defs>
  <sodipodi:namedview
     pagecolor="#ffffff"
     bordercolor="#666666"
     borderopacity="1"
     objecttolerance="10"
     gridtolerance="10"
     guidetolerance="10"
     inkscape:pageopacity="0"
     inkscape:pageshadow="2"
     inkscape:window-width="1310"
     inkscape:window-height="940"
     id="namedview6"
     showgrid="false"
     fit-margin-top="0"
     fit-margin-left="0"
     fit-margin-right="0"
     fit-margin-bottom="0"
     inkscape:zoom="1"
     inkscape:cx="93.342894"
     inkscape:cy="-127.25512"
     inkscape:window-x="69"
     inkscape:window-y="58"
     inkscape:window-maximized="0"
     inkscape:current-layer="svg2" />
  <g
     style="fill:#152b72;fill-opacity:1"
     transform="matrix(2.4511779,0,0,-2.4511779,114.4602,82.415954)"
     id="g4852">
    <path
       inkscape:connector-curvature="0"
       id="path4854"
       style="fill:#152b72;fill-opacity:1;fill-rule:nonzero;stroke:none"
       d="m 0,0 c -0.435,0.208 -0.467,0.326 -0.467,1.129 0,1.488 0.123,2.678 0.156,3.155 0.031,0.328 0.093,0.475 0.249,0.475 0.188,0 0.216,-0.091 0.216,-0.33 0,-0.265 0,-0.683 0.096,-1.097 0.469,-2.203 2.53,-3.037 4.626,-3.037 2.995,0 4.464,2.054 4.464,3.959 0,2.053 -0.905,3.244 -3.592,5.354 L 4.34,10.71 c -3.31,2.587 -4.057,4.431 -4.057,6.452 0,3.185 2.497,5.357 6.465,5.357 1.217,0 2.123,-0.119 2.904,-0.296 0.593,-0.12 0.845,-0.151 1.096,-0.151 0.248,0 0.31,-0.059 0.31,-0.205 0,-0.151 -0.126,-1.133 -0.126,-3.156 0,-0.476 -0.062,-0.684 -0.216,-0.684 -0.188,0 -0.219,0.15 -0.252,0.386 -0.03,0.357 -0.219,1.163 -0.406,1.489 -0.185,0.326 -1.029,1.576 -3.905,1.576 -2.153,0 -3.839,-1.278 -3.839,-3.451 0,-1.696 0.873,-2.707 3.809,-4.994 L 6.996,12.372 C 10.685,9.608 11.559,7.763 11.559,5.385 11.559,4.164 11.058,1.903 8.901,0.446 7.559,-0.444 5.872,-0.801 4.189,-0.801 2.716,-0.801 1.282,-0.594 0,0" />
  </g>
  <g
     style="fill:#152b72;fill-opacity:1"
     transform="matrix(2.4511779,0,0,-2.4511779,114.4602,82.415954)"
     id="g4856">
    <path
       inkscape:connector-curvature="0"
       id="path4858"
       style="fill:#152b72;fill-opacity:1;stroke:#ffffff;stroke-width:0.24600001;stroke-linecap:butt;stroke-linejoin:miter;stroke-miterlimit:4;stroke-dasharray:none;stroke-opacity:1"
       d="m 0,0 c -0.435,0.208 -0.467,0.326 -0.467,1.129 0,1.488 0.123,2.678 0.156,3.155 0.031,0.328 0.093,0.475 0.249,0.475 0.188,0 0.216,-0.091 0.216,-0.33 0,-0.265 0,-0.683 0.096,-1.097 0.469,-2.203 2.53,-3.037 4.626,-3.037 2.995,0 4.464,2.054 4.464,3.959 0,2.053 -0.905,3.244 -3.592,5.354 L 4.34,10.71 c -3.31,2.587 -4.057,4.431 -4.057,6.452 0,3.185 2.497,5.357 6.465,5.357 1.217,0 2.123,-0.119 2.904,-0.296 0.593,-0.12 0.845,-0.151 1.096,-0.151 0.248,0 0.31,-0.059 0.31,-0.205 0,-0.151 -0.126,-1.133 -0.126,-3.156 0,-0.476 -0.062,-0.684 -0.216,-0.684 -0.188,0 -0.219,0.15 -0.252,0.386 -0.03,0.357 -0.219,1.163 -0.406,1.489 -0.185,0.326 -1.029,1.576 -3.905,1.576 -2.153,0 -3.839,-1.278 -3.839,-3.451 0,-1.696 0.873,-2.707 3.809,-4.994 L 6.996,12.372 C 10.685,9.608 11.559,7.763 11.559,5.385 11.559,4.164 11.058,1.903 8.901,0.446 7.559,-0.444 5.872,-0.801 4.189,-0.801 2.716,-0.801 1.282,-0.594 0,0 Z" />
  </g>
  <g
     style="fill:#152b72;fill-opacity:1"
     transform="matrix(2.4511779,0,0,-2.4511779,215.11292,74.738864)"
     id="g4860">
    <path
       inkscape:connector-curvature="0"
       id="path4862"
       style="fill:#152b72;fill-opacity:1;fill-rule:nonzero;stroke:none"
       d="m 0,0 c 0.125,-1.071 0.343,-2.735 1.685,-3.152 0.909,-0.269 1.717,-0.269 2.033,-0.269 0.156,0 0.246,-0.029 0.246,-0.145 0,-0.184 -0.28,-0.271 -0.655,-0.271 -0.685,0 -4.062,0.087 -5.217,0.181 -0.716,0.056 -0.871,0.144 -0.871,0.296 0,0.117 0.06,0.18 0.217,0.208 0.161,0.028 0.187,0.533 0.125,1.069 l -1.503,15.351 -0.09,0 -7.653,-15.468 c -0.656,-1.312 -0.751,-1.576 -1.033,-1.576 -0.218,0 -0.375,0.297 -0.969,1.367 -0.807,1.457 -3.496,6.606 -3.65,6.899 -0.282,0.537 -3.783,7.678 -4.126,8.481 l -0.126,0 -1.248,-13.804 c -0.03,-0.474 -0.03,-1.013 -0.03,-1.519 0,-0.446 0.342,-0.828 0.812,-0.92 0.53,-0.118 0.998,-0.149 1.185,-0.149 0.126,0 0.253,-0.058 0.253,-0.145 0,-0.21 -0.191,-0.271 -0.567,-0.271 -1.154,0 -2.653,0.087 -2.904,0.087 -0.279,0 -1.779,-0.087 -2.62,-0.087 -0.314,0 -0.535,0.061 -0.535,0.271 0,0.087 0.16,0.145 0.317,0.145 0.248,0 0.466,0 0.933,0.09 1.033,0.179 1.127,1.336 1.251,2.468 l 2.25,19.397 c 0.061,0.326 0.154,0.534 0.343,0.534 0.188,0 0.314,-0.118 0.469,-0.445 l 9.557,-18.713 9.183,18.683 c 0.124,0.267 0.25,0.475 0.471,0.475 0.218,0 0.312,-0.235 0.373,-0.801 L 0,0" />
  </g>
  <g
     style="fill:#152b72;fill-opacity:1"
     transform="matrix(2.4511779,0,0,-2.4511779,215.11292,74.738864)"
     id="g4864">
    <path
       inkscape:connector-curvature="0"
       id="path4866"
       style="fill:#152b72;fill-opacity:1;stroke:#ffffff;stroke-width:0.24600001;stroke-linecap:butt;stroke-linejoin:miter;stroke-miterlimit:4;stroke-dasharray:none;stroke-opacity:1"
       d="m 0,0 c 0.125,-1.071 0.343,-2.735 1.685,-3.152 0.909,-0.269 1.717,-0.269 2.033,-0.269 0.156,0 0.246,-0.029 0.246,-0.145 0,-0.184 -0.28,-0.271 -0.655,-0.271 -0.685,0 -4.062,0.087 -5.217,0.181 -0.716,0.056 -0.871,0.144 -0.871,0.296 0,0.117 0.06,0.18 0.217,0.208 0.161,0.028 0.187,0.533 0.125,1.069 l -1.503,15.351 -0.09,0 -7.653,-15.468 c -0.656,-1.312 -0.751,-1.576 -1.033,-1.576 -0.218,0 -0.375,0.297 -0.969,1.367 -0.807,1.457 -3.496,6.606 -3.65,6.899 -0.282,0.537 -3.783,7.678 -4.126,8.481 l -0.126,0 -1.248,-13.804 c -0.03,-0.474 -0.03,-1.013 -0.03,-1.519 0,-0.446 0.342,-0.828 0.812,-0.92 0.53,-0.118 0.998,-0.149 1.185,-0.149 0.126,0 0.253,-0.058 0.253,-0.145 0,-0.21 -0.191,-0.271 -0.567,-0.271 -1.154,0 -2.653,0.087 -2.904,0.087 -0.279,0 -1.779,-0.087 -2.62,-0.087 -0.314,0 -0.535,0.061 -0.535,0.271 0,0.087 0.16,0.145 0.317,0.145 0.248,0 0.466,0 0.933,0.09 1.033,0.179 1.127,1.336 1.251,2.468 l 2.25,19.397 c 0.061,0.326 0.154,0.534 0.343,0.534 0.188,0 0.314,-0.118 0.469,-0.445 l 9.557,-18.713 9.183,18.683 c 0.124,0.267 0.25,0.475 0.471,0.475 0.218,0 0.312,-0.235 0.373,-0.801 L 0,0 Z" />
  </g>
  <g
     style="fill:#152b72;fill-opacity:1"
     transform="matrix(2.4511779,0,0,-2.4511779,228.71205,49.386332)"
     id="g4868">
    <path
       inkscape:connector-curvature="0"
       id="path4870"
       style="fill:#152b72;fill-opacity:1;fill-rule:nonzero;stroke:none"
       d="m 0,0 c 0,4.643 0,5.477 -0.063,6.428 -0.063,1.011 -0.311,1.486 -1.341,1.694 -0.252,0.061 -0.782,0.089 -1.064,0.089 -0.127,0 -0.251,0.059 -0.251,0.182 0,0.176 0.158,0.235 0.5,0.235 1.406,0 3.313,-0.09 3.593,-0.09 0.281,0 2.153,0.09 3.092,0.09 0.343,0 0.5,-0.059 0.5,-0.235 C 4.966,8.27 4.842,8.211 4.717,8.211 4.496,8.211 4.308,8.183 3.934,8.122 3.093,8.003 2.843,7.468 2.78,6.428 2.719,5.477 2.719,4.643 2.719,0 l 0,-4.164 c 0,-4.285 0.999,-6.129 2.341,-7.349 1.532,-1.367 2.938,-1.636 4.716,-1.636 1.907,0 3.782,0.862 4.904,2.142 1.438,1.697 1.812,4.226 1.812,7.288 l 0,3.719 c 0,4.643 0,5.477 -0.062,6.428 -0.064,1.011 -0.312,1.486 -1.344,1.694 -0.248,0.061 -0.779,0.089 -1.06,0.089 -0.126,0 -0.25,0.059 -0.25,0.182 0,0.176 0.156,0.235 0.499,0.235 1.408,0 3.123,-0.09 3.31,-0.09 0.219,0 1.691,0.09 2.624,0.09 0.343,0 0.501,-0.059 0.501,-0.235 0,-0.123 -0.126,-0.182 -0.248,-0.182 -0.22,0 -0.407,0 -0.784,-0.089 C 18.836,7.975 18.587,7.468 18.523,6.428 18.463,5.477 18.463,4.643 18.463,0 l 0,-3.182 c 0,-3.214 -0.378,-6.783 -2.874,-8.896 -2.251,-1.902 -4.593,-2.197 -6.44,-2.197 -1.059,0 -4.212,0.117 -6.43,2.11 C 1.187,-10.77 0,-8.688 0,-4.344 L 0,0" />
  </g>
  <g
     style="fill:#152b72;fill-opacity:1"
     transform="matrix(2.4511779,0,0,-2.4511779,228.71205,49.386332)"
     id="g4872">
    <path
       inkscape:connector-curvature="0"
       id="path4874"
       style="fill:#152b72;fill-opacity:1;stroke:#ffffff;stroke-width:0.24600001;stroke-linecap:butt;stroke-linejoin:miter;stroke-miterlimit:4;stroke-dasharray:none;stroke-opacity:1"
       d="m 0,0 c 0,4.643 0,5.477 -0.063,6.428 -0.063,1.011 -0.311,1.486 -1.341,1.694 -0.252,0.061 -0.782,0.089 -1.064,0.089 -0.127,0 -0.251,0.059 -0.251,0.182 0,0.176 0.158,0.235 0.5,0.235 1.406,0 3.313,-0.09 3.593,-0.09 0.281,0 2.153,0.09 3.092,0.09 0.343,0 0.5,-0.059 0.5,-0.235 C 4.966,8.27 4.842,8.211 4.717,8.211 4.496,8.211 4.308,8.183 3.934,8.122 3.093,8.003 2.843,7.468 2.78,6.428 2.719,5.477 2.719,4.643 2.719,0 l 0,-4.164 c 0,-4.285 0.999,-6.129 2.341,-7.349 1.532,-1.367 2.938,-1.636 4.716,-1.636 1.907,0 3.782,0.862 4.904,2.142 1.438,1.697 1.812,4.226 1.812,7.288 l 0,3.719 c 0,4.643 0,5.477 -0.062,6.428 -0.064,1.011 -0.312,1.486 -1.344,1.694 -0.248,0.061 -0.779,0.089 -1.06,0.089 -0.126,0 -0.25,0.059 -0.25,0.182 0,0.176 0.156,0.235 0.499,0.235 1.408,0 3.123,-0.09 3.31,-0.09 0.219,0 1.691,0.09 2.624,0.09 0.343,0 0.501,-0.059 0.501,-0.235 0,-0.123 -0.126,-0.182 -0.248,-0.182 -0.22,0 -0.407,0 -0.784,-0.089 C 18.836,7.975 18.587,7.468 18.523,6.428 18.463,5.477 18.463,4.643 18.463,0 l 0,-3.182 c 0,-3.214 -0.378,-6.783 -2.874,-8.896 -2.251,-1.902 -4.593,-2.197 -6.44,-2.197 -1.059,0 -4.212,0.117 -6.43,2.11 C 1.187,-10.77 0,-8.688 0,-4.344 L 0,0 Z" />
  </g>
  <g
     style="fill:#152b72;fill-opacity:1"
     transform="matrix(2.4511779,0,0,-2.4511779,71.861181,84.200414)"
     id="g4876">
    <path
       inkscape:connector-curvature="0"
       id="path4878-6"
       style="fill:#152b72;fill-opacity:1;fill-rule:nonzero;stroke:none"
       d="m 0,0 -6.253,5.717 0,0.007 -0.004,-0.002 -0.002,0.002 0,-0.007 -6.258,-5.717 6.254,2.016 0.012,0 L 0,0" />
  </g>
  <g
     style="fill:#152b72;fill-opacity:1"
     transform="matrix(2.4511779,0,0,-2.4511779,56.533961,70.150264)"
     id="g4880">
    <path
       inkscape:connector-curvature="0"
       id="path4882"
       style="fill:#152b72;fill-opacity:1;fill-rule:nonzero;stroke:none"
       d="M 0,0 2.06,5.658 6.66,6.213 0,0" />
  </g>
  <g
     style="fill:#152b72;fill-opacity:1"
     transform="matrix(2.4511779,0,0,-2.4511779,84.261691,59.448414)"
     id="g4884">
    <path
       inkscape:connector-curvature="0"
       id="path4886"
       style="fill:#152b72;fill-opacity:1;fill-rule:nonzero;stroke:none"
       d="M 0,0 -4.651,1.847 -4.783,9.455 0,0" />
  </g>
  <g
     style="fill:#152b72;fill-opacity:1"
     transform="matrix(2.4511779,0,0,-2.4511779,75.327151,27.877246)"
     id="g4888">
    <path
       inkscape:connector-curvature="0"
       id="path4890"
       style="fill:#152b72;fill-opacity:1;fill-rule:nonzero;stroke:none"
       d="M 0,0 4.648,0.003 -1.134,-3.431 0,0" />
  </g>
  <g
     style="fill:#987c4c;fill-opacity:1"
     transform="matrix(2.4511779,0,0,-2.4511779,56.519261,70.150264)"
     id="g4892">
    <path
       inkscape:connector-curvature="0"
       id="path4894"
       style="fill:#987c4c;fill-opacity:1;fill-rule:nonzero;stroke:none"
       d="M 0,0 -2.062,5.658 -6.662,6.213 0,0" />
  </g>
  <g
     style="fill:#987c4c;fill-opacity:1"
     transform="matrix(2.4511779,0,0,-2.4511779,28.781731,59.448414)"
     id="g4896">
    <path
       inkscape:connector-curvature="0"
       id="path4898"
       style="fill:#987c4c;fill-opacity:1;fill-rule:nonzero;stroke:none"
       d="M 0,0 4.653,1.847 4.785,9.455 0,0" />
  </g>
  <g
     style="fill:#987c4c;fill-opacity:1"
     transform="matrix(2.4511779,0,0,-2.4511779,37.716271,27.877246)"
     id="g4900">
    <path
       inkscape:connector-curvature="0"
       id="path4902-5"
       style="fill:#987c4c;fill-opacity:1;fill-rule:nonzero;stroke:none"
       d="M 0,0 -4.645,0.003 1.139,-3.431 0,0" />
  </g>
  <g
     style="fill:#987c4c;fill-opacity:1"
     transform="matrix(2.4511779,0,0,-2.4511779,95.578781,0)"
     id="g4904">
    <path
       inkscape:connector-curvature="0"
       id="path4906"
       style="fill:#987c4c;fill-opacity:1;fill-rule:nonzero;stroke:none"
       d="m 0,0 c -4.148,-3.906 -6.996,-2.191 -8.463,-1.876 -0.77,0.31 -1.738,0.495 -2.789,0.495 -2.532,0 -4.588,-1.08 -4.588,-2.411 0,-0.481 0.273,-0.929 0.736,-1.302 0.473,0.44 1.208,0.795 2.084,1.001 0.895,0.156 2.41,0.275 4.214,-0.18 0.16,-0.046 0.334,-0.096 0.522,-0.141 0.218,-0.069 0.413,-0.113 0.583,-0.147 l 0.224,-0.044 c 4.695,-1.041 7.511,1.314 7.511,1.314 L 0,0" />
  </g>
  <g
     style="fill:#152b72;fill-opacity:1"
     transform="matrix(2.4511779,0,0,-2.4511779,55.502021,100.57918)"
     id="g4908">
    <path
       inkscape:connector-curvature="0"
       id="path4910"
       style="fill:#152b72;fill-opacity:1;fill-rule:nonzero;stroke:none"
       d="M 0,0 C 0,0 -2.613,0.008 -3.896,0.632 -6.215,1.75 -6.657,5.19 -6.95,8.028 c -0.031,0.312 -2.192,0.993 -3.219,1.934 -1.67,1.528 -1.414,6.292 -1.414,6.595 0,0.309 -2.704,1.636 -2.704,4.584 0,1.246 0.024,8.218 0.024,8.218 -1.761,2.184 -2.883,2.214 -4.29,1.775 -1.746,-0.56 -2.249,-1.85 -4.07,-2.109 0,-0.4 -0.02,-21.18 -0.02,-21.18 0,-6.399 1.176,-10.823 7.736,-15.743 6.082,-4.561 10.794,-4.448 14.901,-11.921 C 0.064,-19.937 0.021,0 0,0" />
  </g>
  <g
     style="fill:#152b72;fill-opacity:1"
     transform="matrix(2.4511779,0,0,-2.4511779,113.63415,113.51404)"
     id="g4912">
    <path
       inkscape:connector-curvature="0"
       id="path4914"
       style="fill:#152b72;fill-opacity:1;fill-rule:nonzero;stroke:none"
       d="m 0,0 c -0.115,0.051 -0.138,0.087 -0.138,0.244 0,0.39 0.029,0.817 0.036,0.929 0.008,0.107 0.031,0.183 0.088,0.183 L 0.06,1.237 C 0.06,1.146 0.09,0.995 0.122,0.875 0.28,0.35 0.707,0.157 1.154,0.157 c 0.65,0 0.967,0.434 0.967,0.811 0,0.347 -0.107,0.681 -0.707,1.135 L 1.081,2.357 C 0.289,2.968 0.016,3.465 0.016,4.04 c 0,0.781 0.664,1.341 1.666,1.341 0.467,0 0.771,-0.069 0.959,-0.12 L 2.742,5.175 C 2.742,5.083 2.715,4.877 2.715,4.323 2.715,4.167 2.692,4.11 2.633,4.11 l -0.07,0.129 c 0,0.064 -0.039,0.284 -0.19,0.469 C 2.267,4.843 2.056,5.057 1.587,5.057 1.055,5.057 0.728,4.749 0.728,4.323 0.728,3.997 0.896,3.749 1.494,3.302 L 1.695,3.153 C 2.563,2.493 2.879,2.018 2.879,1.343 2.879,0.932 2.721,0.442 2.199,0.109 1.84,-0.118 1.438,-0.183 1.055,-0.183 0.636,-0.183 0.311,-0.133 0,0" />
  </g>
  <g
     style="fill:#152b72;fill-opacity:1"
     transform="matrix(2.4511779,0,0,-2.4511779,124.99046,105.61145)"
     id="g4916">
    <path
       inkscape:connector-curvature="0"
       id="path4918"
       style="fill:#152b72;fill-opacity:1;fill-rule:nonzero;stroke:none"
       d="M 0,0 C 0,1.079 0,1.277 -0.014,1.504 -0.029,1.746 -0.102,1.866 -0.26,1.9 l -0.26,0.031 -0.117,0.071 c 0,0.042 0.059,0.056 0.175,0.056 0.273,0 0.727,-0.021 0.938,-0.021 0.179,0 0.606,0.021 0.88,0.021 0.092,0 0.15,-0.014 0.15,-0.056 L 1.393,1.931 1.177,1.91 C 0.98,1.873 0.924,1.752 0.907,1.504 0.895,1.277 0.895,1.079 0.895,0 l 0,-1.249 c 0,-0.69 0,-1.25 0.029,-1.555 0.021,-0.19 0.07,-0.319 0.288,-0.347 0.101,-0.014 0.26,-0.03 0.366,-0.03 L 1.695,-3.235 1.557,-3.308 c -0.475,0 -0.932,0.021 -1.125,0.021 -0.167,0 -0.621,-0.021 -0.909,-0.021 -0.093,0 -0.144,0.021 -0.144,0.073 l 0.114,0.054 c 0.11,0 0.195,0.016 0.26,0.03 0.145,0.028 0.189,0.148 0.209,0.356 C 0,-2.499 0,-1.939 0,-1.249 L 0,0" />
  </g>
  <g
     style="fill:#152b72;fill-opacity:1"
     transform="matrix(2.4511779,0,0,-2.4511779,134.05737,111.3521)"
     id="g4920">
    <path
       inkscape:connector-curvature="0"
       id="path4922"
       style="fill:#152b72;fill-opacity:1;fill-rule:nonzero;stroke:none"
       d="M 0,0 C 0.017,-0.554 0.109,-0.738 0.255,-0.786 0.377,-0.83 0.514,-0.837 0.627,-0.837 l 0.124,-0.057 c 0,-0.057 -0.063,-0.07 -0.166,-0.07 -0.469,0 -0.757,0.02 -0.895,0.02 -0.064,0 -0.403,-0.02 -0.777,-0.02 -0.096,0 -0.16,0.006 -0.16,0.07 l 0.114,0.057 c 0.096,0 0.225,0.007 0.326,0.036 0.188,0.056 0.216,0.263 0.225,0.88 l 0.064,4.2 c 0,0.143 0.022,0.242 0.092,0.242 0.08,0 0.147,-0.092 0.269,-0.219 C -0.071,4.209 1.026,3.053 2.079,2.022 2.57,1.541 3.544,0.52 3.665,0.404 l 0.036,0 L 3.63,3.592 C 3.621,4.023 3.558,4.159 3.386,4.23 3.275,4.272 3.105,4.272 3.003,4.272 L 2.887,4.336 C 2.887,4.393 2.968,4.4 3.074,4.4 3.45,4.4 3.795,4.379 3.948,4.379 4.026,4.379 4.302,4.4 4.655,4.4 4.749,4.4 4.822,4.393 4.822,4.336 L 4.69,4.272 4.474,4.252 C 4.272,4.195 4.215,4.046 4.206,3.647 L 4.126,-0.83 c 0,-0.155 -0.027,-0.221 -0.092,-0.221 L 3.788,-0.894 C 3.335,-0.468 2.41,0.461 1.661,1.191 0.874,1.959 0.072,2.846 -0.058,2.98 l -0.02,0 L 0,0" />
  </g>
  <g
     style="fill:#152b72;fill-opacity:1"
     transform="matrix(2.4511779,0,0,-2.4511779,160.5546,112.55563)"
     id="g4924">
    <path
       inkscape:connector-curvature="0"
       id="path4926-7"
       style="fill:#152b72;fill-opacity:1;fill-rule:nonzero;stroke:none"
       d="m 0,0 c 0,-0.19 -0.009,-0.205 -0.096,-0.255 -0.468,-0.24 -1.173,-0.32 -1.737,-0.32 -1.767,0 -3.333,0.824 -3.333,2.784 0,1.135 0.6,1.93 1.254,2.32 0.693,0.41 1.336,0.461 1.941,0.461 0.499,0 1.134,-0.085 1.278,-0.114 0.152,-0.026 0.404,-0.07 0.568,-0.078 l 0.104,-0.085 c 0,-0.078 -0.052,-0.277 -0.052,-1.163 0,-0.113 -0.023,-0.151 -0.08,-0.151 l -0.072,0.094 c -0.022,0.164 -0.055,0.39 -0.244,0.589 -0.217,0.228 -0.795,0.553 -1.609,0.553 -0.398,0 -0.925,-0.028 -1.429,-0.44 -0.405,-0.333 -0.665,-0.866 -0.665,-1.739 0,-1.525 0.989,-2.668 2.511,-2.668 0.189,0 0.441,0 0.613,0.077 0.109,0.051 0.138,0.143 0.138,0.264 l 0,0.667 c 0,0.353 0,0.624 -0.008,0.836 -0.008,0.242 -0.072,0.356 -0.308,0.406 -0.061,0.013 -0.182,0.021 -0.282,0.021 l -0.109,0.057 c 0,0.056 0.051,0.07 0.15,0.07 0.377,0 0.831,-0.021 1.048,-0.021 0.222,0 0.607,0.021 0.843,0.021 0.094,0 0.147,-0.014 0.147,-0.07 L 0.477,2.059 0.28,2.038 C 0.085,2.003 0.014,1.882 0.005,1.632 0,1.42 0,1.137 0,0.781 L 0,0" />
  </g>
  <g
     style="fill:#152b72;fill-opacity:1"
     transform="matrix(2.4511779,0,0,-2.4511779,166.283,109.17791)"
     id="g4928">
    <path
       inkscape:connector-curvature="0"
       id="path4930"
       style="fill:#152b72;fill-opacity:1;fill-rule:nonzero;stroke:none"
       d="m 0,0 -0.064,-0.058 -0.39,-1.014 c -0.072,-0.177 -0.108,-0.348 -0.108,-0.433 0,-0.128 0.063,-0.221 0.289,-0.221 l 0.107,0 0.107,-0.054 -0.124,-0.073 c -0.23,0 -0.538,0.02 -0.761,0.02 -0.08,0 -0.477,-0.02 -0.852,-0.02 -0.095,0 -0.139,0.014 -0.139,0.073 l 0.088,0.054 0.222,0.015 c 0.333,0.042 0.47,0.284 0.614,0.639 L 0.8,3.386 C 0.888,3.591 0.93,3.668 1.001,3.668 1.068,3.668 1.109,3.604 1.184,3.439 1.356,3.052 2.511,0.156 2.973,-0.923 3.246,-1.561 3.455,-1.661 3.607,-1.695 3.716,-1.719 3.823,-1.726 3.909,-1.726 L 4.003,-1.78 c 0,-0.059 -0.063,-0.073 -0.332,-0.073 -0.26,0 -0.784,0 -1.361,0.014 -0.13,0.006 -0.219,0.006 -0.219,0.059 L 2.193,-1.719 2.257,-1.555 1.681,-0.05 1.608,0 0,0 Z M 1.473,0.354 1.507,0.397 0.859,2.15 0.821,2.213 0.779,2.15 0.116,0.404 l 0.028,-0.05 1.329,0" />
  </g>
  <g
     style="fill:#152b72;fill-opacity:1"
     transform="matrix(2.4511779,0,0,-2.4511779,178.0413,105.61145)"
     id="g4932">
    <path
       inkscape:connector-curvature="0"
       id="path4934"
       style="fill:#152b72;fill-opacity:1;fill-rule:nonzero;stroke:none"
       d="m 0,0 c 0,1.079 0,1.277 -0.014,1.504 -0.013,0.242 -0.072,0.354 -0.309,0.406 -0.06,0.014 -0.182,0.021 -0.281,0.021 l -0.123,0.063 c 0,0.05 0.048,0.064 0.157,0.064 0.382,0 0.838,-0.021 1.042,-0.021 0.294,0 0.712,0.021 1.045,0.021 0.9,0 1.225,-0.299 1.341,-0.406 C 3.017,1.504 3.22,1.185 3.22,0.809 3.22,-0.199 2.468,-0.91 1.444,-0.91 l -0.152,0.009 -0.086,0.064 c 0,0.056 0.051,0.076 0.202,0.076 0.403,0 0.967,0.448 0.967,1.172 0,0.234 -0.023,0.711 -0.426,1.065 C 1.69,1.71 1.393,1.752 1.227,1.752 1.118,1.752 1.012,1.746 0.945,1.724 L 0.888,1.59 l 0,-2.839 c 0,-0.654 0,-1.214 0.036,-1.52 0.021,-0.199 0.065,-0.354 0.282,-0.382 0.101,-0.014 0.261,-0.03 0.368,-0.03 L 1.69,-3.235 1.553,-3.308 c -0.478,0 -0.932,0.021 -1.12,0.021 -0.165,0 -0.621,-0.021 -0.91,-0.021 -0.093,0 -0.141,0.021 -0.141,0.073 l 0.113,0.054 c 0.109,0 0.195,0.016 0.262,0.03 0.143,0.028 0.178,0.183 0.208,0.39 C 0,-2.463 0,-1.903 0,-1.249 L 0,0" />
  </g>
  <g
     style="fill:#152b72;fill-opacity:1"
     transform="matrix(2.4511779,0,0,-2.4511779,187.78964,107.14098)"
     id="g4936">
    <path
       inkscape:connector-curvature="0"
       id="path4938"
       style="fill:#152b72;fill-opacity:1;fill-rule:nonzero;stroke:none"
       d="m 0,0 c 0,1.214 0.814,2.78 2.981,2.78 1.795,0 2.914,-1.027 2.914,-2.653 0,-1.625 -1.155,-2.91 -2.988,-2.91 C 0.837,-2.783 0,-1.257 0,0 m 4.885,-0.137 c 0,1.591 -0.933,2.576 -2.115,2.576 -0.831,0 -1.776,-0.453 -1.776,-2.219 0,-1.477 0.829,-2.65 2.217,-2.65 0.504,0 1.674,0.243 1.674,2.293" />
  </g>
  <g
     style="fill:#152b72;fill-opacity:1"
     transform="matrix(2.4511779,0,0,-2.4511779,206.0264,105.61145)"
     id="g4940">
    <path
       inkscape:connector-curvature="0"
       id="path4942"
       style="fill:#152b72;fill-opacity:1;fill-rule:nonzero;stroke:none"
       d="M 0,0 C 0,1.079 0,1.277 -0.014,1.504 -0.03,1.746 -0.089,1.858 -0.327,1.91 -0.383,1.924 -0.505,1.931 -0.607,1.931 l -0.122,0.063 c 0,0.05 0.049,0.064 0.158,0.064 0.382,0 0.838,-0.021 0.988,-0.021 0.245,0 0.795,0.021 1.017,0.021 0.455,0 0.939,-0.042 1.328,-0.306 0.202,-0.133 0.49,-0.496 0.49,-0.972 0,-0.523 -0.221,-1.008 -0.953,-1.591 0.642,-0.793 1.142,-1.425 1.567,-1.866 0.404,-0.411 0.7,-0.461 0.808,-0.481 l 0.203,-0.023 0.086,-0.054 -0.138,-0.073 -0.685,0 c -0.405,0 -0.583,0.036 -0.771,0.135 -0.311,0.162 -0.585,0.496 -0.989,1.044 -0.289,0.39 -0.62,0.873 -0.714,0.979 l -0.13,0.048 -0.629,0.015 -0.056,-0.056 0,-0.1 c 0,-0.66 0,-1.22 0.034,-1.518 0.022,-0.207 0.066,-0.362 0.283,-0.39 0.107,-0.014 0.266,-0.03 0.354,-0.03 l 0.085,-0.054 c 0,-0.052 -0.049,-0.073 -0.145,-0.073 -0.417,0 -0.951,0.021 -1.06,0.021 -0.135,0 -0.591,-0.021 -0.88,-0.021 -0.093,0 -0.143,0.021 -0.143,0.073 l 0.116,0.054 c 0.108,0 0.192,0.016 0.258,0.03 0.144,0.028 0.181,0.183 0.211,0.39 C 0,-2.463 0,-1.903 0,-1.249 L 0,0 Z m 0.851,-0.562 0.064,-0.127 c 0.153,-0.049 0.368,-0.072 0.547,-0.072 0.291,0 0.382,0.03 0.512,0.122 0.217,0.158 0.426,0.483 0.426,1.064 0,1.008 -0.678,1.299 -1.102,1.299 -0.18,0 -0.31,-0.008 -0.383,-0.029 l -0.064,-0.098 0,-2.159" />
  </g>
  <g
     style="fill:#152b72;fill-opacity:1"
     transform="matrix(2.4511779,0,0,-2.4511779,219.46376,105.61145)"
     id="g4944">
    <path
       inkscape:connector-curvature="0"
       id="path4946"
       style="fill:#152b72;fill-opacity:1;fill-rule:nonzero;stroke:none"
       d="m 0,0 c 0,1.079 0,1.277 -0.014,1.504 -0.013,0.242 -0.072,0.354 -0.31,0.406 -0.059,0.014 -0.181,0.021 -0.28,0.021 l -0.123,0.063 c 0,0.05 0.05,0.064 0.16,0.064 0.193,0 0.401,-0.007 0.582,-0.007 0.188,-0.007 0.353,-0.014 0.453,-0.014 0.233,0 1.67,0 1.805,0.007 0.137,0.014 0.253,0.027 0.311,0.043 L 2.698,2.114 2.742,2.051 C 2.742,2.002 2.706,1.916 2.685,1.59 L 2.648,1.122 2.576,1.043 2.511,1.142 2.467,1.397 C 2.417,1.524 2.347,1.611 1.985,1.652 1.86,1.667 1.106,1.682 0.959,1.682 l -0.05,-0.071 0,-1.796 0.05,-0.079 c 0.16,0 0.99,0 1.156,0.014 0.172,0.016 0.281,0.036 0.345,0.106 L 2.576,-0.05 2.628,-0.107 C 2.628,-0.149 2.59,-0.264 2.568,-0.624 2.554,-0.768 2.54,-1.05 2.54,-1.102 L 2.477,-1.235 2.41,-1.171 c -0.007,0.069 -0.007,0.162 -0.029,0.256 -0.034,0.141 -0.135,0.248 -0.403,0.276 -0.139,0.015 -0.853,0.021 -1.024,0.021 l -0.045,-0.071 0,-0.56 c 0,-0.242 -0.008,-0.895 0,-1.102 0.015,-0.487 0.13,-0.594 0.867,-0.594 0.187,0 0.491,0 0.677,0.085 0.189,0.085 0.276,0.234 0.325,0.526 l 0.08,0.105 0.059,-0.127 c 0,-0.165 -0.059,-0.647 -0.097,-0.789 -0.049,-0.183 -0.114,-0.183 -0.388,-0.183 -0.541,0 -0.937,0.013 -1.247,0.02 -0.311,0.015 -0.536,0.021 -0.751,0.021 -0.08,0 -0.24,-0.006 -0.411,-0.006 -0.167,-0.009 -0.356,-0.015 -0.5,-0.015 -0.09,0 -0.142,0.021 -0.142,0.073 l 0.114,0.054 c 0.109,0 0.195,0.016 0.261,0.03 0.144,0.028 0.179,0.183 0.208,0.39 C 0,-2.463 0,-1.903 0,-1.249 L 0,0" />
  </g>
  <g
     style="fill:#152b72;fill-opacity:1"
     transform="matrix(2.4511779,0,0,-2.4511779,236.77888,100.63801)"
     id="g4948">
    <path
       inkscape:connector-curvature="0"
       id="path4950"
       style="fill:#152b72;fill-opacity:1;fill-rule:nonzero;stroke:none"
       d="m 0,0 c 0.019,0.121 0.063,0.186 0.122,0.186 0.058,0 0.101,-0.036 0.195,-0.22 l 1.969,-4.002 1.962,4.052 c 0.051,0.113 0.094,0.17 0.161,0.17 0.064,0 0.107,-0.071 0.13,-0.22 L 5.194,-4.421 C 5.26,-4.866 5.332,-5.073 5.546,-5.137 5.757,-5.201 5.901,-5.209 5.995,-5.209 l 0.113,-0.049 c 0,-0.057 -0.086,-0.078 -0.186,-0.078 -0.18,0 -1.175,0.021 -1.463,0.042 -0.167,0.016 -0.211,0.036 -0.211,0.077 l 0.081,0.08 c 0.043,0.014 0.066,0.106 0.036,0.306 l -0.433,3.119 -0.028,0 -1.574,-3.22 C 2.163,-5.265 2.129,-5.329 2.063,-5.329 c -0.066,0 -0.138,0.142 -0.252,0.355 -0.173,0.327 -0.743,1.411 -0.832,1.611 -0.064,0.149 -0.496,1.044 -0.75,1.576 l -0.026,0 -0.377,-2.825 c -0.015,-0.127 -0.022,-0.219 -0.022,-0.333 0,-0.136 0.093,-0.199 0.215,-0.228 0.13,-0.028 0.234,-0.036 0.305,-0.036 l 0.109,-0.049 c 0,-0.063 -0.064,-0.078 -0.174,-0.078 -0.303,0 -0.627,0.021 -0.757,0.021 -0.137,0 -0.483,-0.021 -0.715,-0.021 l -0.129,0.078 0.113,0.049 c 0.06,0 0.11,0 0.218,0.022 0.201,0.043 0.26,0.321 0.296,0.559 L 0,0" />
  </g>
  <g
     style="fill:#152b72;fill-opacity:1"
     transform="matrix(2.4511779,0,0,-2.4511779,255.53774,109.17791)"
     id="g4952">
    <path
       inkscape:connector-curvature="0"
       id="path4954-3"
       style="fill:#152b72;fill-opacity:1;fill-rule:nonzero;stroke:none"
       d="m 0,0 -0.066,-0.058 -0.388,-1.014 c -0.075,-0.177 -0.109,-0.348 -0.109,-0.433 0,-0.128 0.064,-0.221 0.289,-0.221 l 0.105,0 0.11,-0.054 -0.123,-0.073 c -0.229,0 -0.541,0.02 -0.763,0.02 -0.08,0 -0.477,-0.02 -0.851,-0.02 -0.096,0 -0.14,0.014 -0.14,0.073 l 0.086,0.054 0.225,0.015 c 0.333,0.042 0.47,0.284 0.614,0.639 l 1.81,4.458 c 0.088,0.205 0.13,0.282 0.204,0.282 0.065,0 0.109,-0.064 0.179,-0.229 C 1.355,3.052 2.51,0.156 2.97,-0.923 3.246,-1.561 3.455,-1.661 3.606,-1.695 3.715,-1.719 3.823,-1.726 3.91,-1.726 L 4.004,-1.78 c 0,-0.059 -0.067,-0.073 -0.332,-0.073 -0.261,0 -0.786,0 -1.362,0.014 -0.131,0.006 -0.219,0.006 -0.219,0.059 L 2.193,-1.719 2.257,-1.555 1.68,-0.05 1.608,0 0,0 Z M 1.472,0.354 1.508,0.397 0.858,2.15 0.821,2.213 0.777,2.15 0.114,0.404 l 0.03,-0.05 1.328,0" />
  </g>
  <g
     style="fill:#152b72;fill-opacity:1"
     transform="matrix(2.4511779,0,0,-2.4511779,268.28632,111.3521)"
     id="g4956">
    <path
       inkscape:connector-curvature="0"
       id="path4958"
       style="fill:#152b72;fill-opacity:1;fill-rule:nonzero;stroke:none"
       d="M 0,0 C 0.014,-0.554 0.108,-0.738 0.253,-0.786 0.374,-0.83 0.511,-0.837 0.627,-0.837 l 0.122,-0.057 c 0,-0.057 -0.063,-0.07 -0.166,-0.07 -0.469,0 -0.757,0.02 -0.893,0.02 -0.067,0 -0.405,-0.02 -0.779,-0.02 -0.095,0 -0.159,0.006 -0.159,0.07 l 0.114,0.057 c 0.095,0 0.225,0.007 0.325,0.036 0.188,0.056 0.218,0.263 0.224,0.88 l 0.067,4.2 c 0,0.143 0.02,0.242 0.091,0.242 0.079,0 0.147,-0.092 0.269,-0.219 C -0.072,4.209 1.024,3.053 2.077,2.022 2.568,1.541 3.543,0.52 3.665,0.404 l 0.036,0 -0.073,3.188 C 3.621,4.023 3.557,4.159 3.383,4.23 3.275,4.272 3.103,4.272 3,4.272 L 2.884,4.336 C 2.884,4.393 2.967,4.4 3.074,4.4 3.449,4.4 3.796,4.379 3.946,4.379 4.026,4.379 4.3,4.4 4.653,4.4 4.747,4.4 4.819,4.393 4.819,4.336 L 4.69,4.272 4.473,4.252 C 4.273,4.195 4.212,4.046 4.204,3.647 L 4.126,-0.83 c 0,-0.155 -0.03,-0.221 -0.093,-0.221 L 3.788,-0.894 C 3.333,-0.468 2.41,0.461 1.66,1.191 0.871,1.959 0.072,2.846 -0.058,2.98 L -0.08,2.98 0,0" />
  </g>
  <g
     style="fill:#152b72;fill-opacity:1"
     transform="matrix(2.4511779,0,0,-2.4511779,284.83667,109.17791)"
     id="g4960">
    <path
       inkscape:connector-curvature="0"
       id="path4962"
       style="fill:#152b72;fill-opacity:1;fill-rule:nonzero;stroke:none"
       d="m 0,0 -0.064,-0.058 -0.389,-1.014 c -0.073,-0.177 -0.108,-0.348 -0.108,-0.433 0,-0.128 0.064,-0.221 0.287,-0.221 l 0.109,0 0.109,-0.054 -0.123,-0.073 c -0.232,0 -0.542,0.02 -0.764,0.02 -0.08,0 -0.478,-0.02 -0.854,-0.02 -0.092,0 -0.136,0.014 -0.136,0.073 l 0.086,0.054 0.225,0.015 c 0.332,0.042 0.468,0.284 0.612,0.639 L 0.801,3.386 C 0.887,3.591 0.932,3.668 1.003,3.668 1.067,3.668 1.112,3.604 1.184,3.439 1.357,3.052 2.512,0.156 2.973,-0.923 3.246,-1.561 3.457,-1.661 3.609,-1.695 3.717,-1.719 3.826,-1.726 3.911,-1.726 L 4.006,-1.78 c 0,-0.059 -0.066,-0.073 -0.335,-0.073 -0.258,0 -0.784,0 -1.361,0.014 -0.128,0.006 -0.217,0.006 -0.217,0.059 L 2.195,-1.719 2.259,-1.555 1.683,-0.05 1.61,0 0,0 Z M 1.473,0.354 1.508,0.397 0.859,2.15 0.823,2.213 0.781,2.15 0.116,0.404 l 0.028,-0.05 1.329,0" />
  </g>
  <g
     style="fill:#152b72;fill-opacity:1"
     transform="matrix(2.4511779,0,0,-2.4511779,307.33603,112.55563)"
     id="g4964">
    <path
       inkscape:connector-curvature="0"
       id="path4966"
       style="fill:#152b72;fill-opacity:1;fill-rule:nonzero;stroke:none"
       d="m 0,0 c 0,-0.19 -0.01,-0.205 -0.094,-0.255 -0.468,-0.24 -1.176,-0.32 -1.74,-0.32 -1.769,0 -3.333,0.824 -3.333,2.784 0,1.135 0.6,1.93 1.256,2.32 0.693,0.41 1.336,0.461 1.943,0.461 0.496,0 1.129,-0.085 1.276,-0.114 0.151,-0.026 0.404,-0.07 0.568,-0.078 l 0.101,-0.085 c 0,-0.078 -0.051,-0.277 -0.051,-1.163 0,-0.113 -0.02,-0.151 -0.077,-0.151 l -0.073,0.094 c -0.024,0.164 -0.058,0.39 -0.247,0.589 -0.215,0.228 -0.792,0.553 -1.607,0.553 -0.397,0 -0.924,-0.028 -1.429,-0.44 C -3.911,3.862 -4.17,3.329 -4.17,2.456 c 0,-1.525 0.988,-2.668 2.51,-2.668 0.188,0 0.441,0 0.613,0.077 0.108,0.051 0.136,0.143 0.136,0.264 l 0,0.667 c 0,0.353 0,0.624 -0.006,0.836 -0.008,0.242 -0.07,0.356 -0.312,0.406 -0.057,0.013 -0.178,0.021 -0.281,0.021 l -0.108,0.057 c 0,0.056 0.051,0.07 0.152,0.07 0.377,0 0.83,-0.021 1.045,-0.021 0.225,0 0.607,0.021 0.846,0.021 0.094,0 0.144,-0.014 0.144,-0.07 L 0.476,2.059 0.28,2.038 C 0.085,2.003 0.012,1.882 0.006,1.632 0,1.42 0,1.137 0,0.781 L 0,0" />
  </g>
  <g
     style="fill:#152b72;fill-opacity:1"
     transform="matrix(2.4511779,0,0,-2.4511779,312.35605,105.61145)"
     id="g4968">
    <path
       inkscape:connector-curvature="0"
       id="path4970"
       style="fill:#152b72;fill-opacity:1;fill-rule:nonzero;stroke:none"
       d="m 0,0 c 0,1.079 0,1.277 -0.015,1.504 -0.014,0.242 -0.07,0.354 -0.31,0.406 -0.058,0.014 -0.18,0.021 -0.281,0.021 l -0.122,0.063 c 0,0.05 0.051,0.064 0.159,0.064 0.194,0 0.403,-0.007 0.583,-0.007 0.19,-0.007 0.354,-0.014 0.454,-0.014 0.233,0 1.667,0 1.804,0.007 0.139,0.014 0.253,0.027 0.312,0.043 L 2.698,2.114 2.742,2.051 C 2.742,2.002 2.704,1.916 2.685,1.59 L 2.647,1.122 2.575,1.043 2.511,1.142 2.467,1.397 C 2.417,1.524 2.347,1.611 1.982,1.652 1.863,1.667 1.102,1.682 0.959,1.682 l -0.05,-0.071 0,-1.796 0.05,-0.079 c 0.158,0 0.989,0 1.156,0.014 0.172,0.016 0.279,0.036 0.346,0.106 l 0.114,0.094 0.05,-0.057 C 2.625,-0.149 2.589,-0.264 2.569,-0.624 2.555,-0.768 2.539,-1.05 2.539,-1.102 L 2.474,-1.235 2.411,-1.171 c -0.008,0.069 -0.008,0.162 -0.03,0.256 -0.034,0.141 -0.136,0.248 -0.404,0.276 -0.137,0.015 -0.852,0.021 -1.026,0.021 l -0.042,-0.071 0,-0.56 c 0,-0.242 -0.006,-0.895 0,-1.102 0.016,-0.487 0.13,-0.594 0.864,-0.594 0.191,0 0.492,0 0.682,0.085 0.187,0.085 0.273,0.234 0.323,0.526 l 0.079,0.105 0.057,-0.127 c 0,-0.165 -0.057,-0.647 -0.095,-0.789 -0.048,-0.183 -0.115,-0.183 -0.388,-0.183 -0.54,0 -0.939,0.013 -1.248,0.02 -0.308,0.015 -0.533,0.021 -0.749,0.021 -0.081,0 -0.24,-0.006 -0.415,-0.006 -0.165,-0.009 -0.349,-0.015 -0.497,-0.015 -0.091,0 -0.141,0.021 -0.141,0.073 l 0.114,0.054 c 0.109,0 0.194,0.016 0.26,0.03 0.145,0.028 0.18,0.183 0.209,0.39 C 0,-2.463 0,-1.903 0,-1.249 L 0,0" />
  </g>
  <g
     style="fill:#152b72;fill-opacity:1"
     transform="matrix(2.4511779,0,0,-2.4511779,324.27367,100.63801)"
     id="g4972">
    <path
       inkscape:connector-curvature="0"
       id="path4974"
       style="fill:#152b72;fill-opacity:1;fill-rule:nonzero;stroke:none"
       d="m 0,0 c 0.022,0.121 0.066,0.186 0.125,0.186 0.058,0 0.098,-0.036 0.192,-0.22 l 1.971,-4.002 1.963,4.052 c 0.05,0.113 0.094,0.17 0.158,0.17 0.066,0 0.108,-0.071 0.128,-0.22 l 0.657,-4.387 c 0.066,-0.445 0.14,-0.652 0.354,-0.716 0.209,-0.064 0.355,-0.072 0.449,-0.072 l 0.114,-0.049 c 0,-0.057 -0.089,-0.078 -0.186,-0.078 -0.182,0 -1.178,0.021 -1.466,0.042 -0.164,0.016 -0.208,0.036 -0.208,0.077 l 0.078,0.08 c 0.043,0.014 0.066,0.106 0.036,0.306 l -0.433,3.119 -0.026,0 -1.574,-3.22 C 2.163,-5.265 2.128,-5.329 2.064,-5.329 c -0.065,0 -0.137,0.142 -0.253,0.355 -0.172,0.327 -0.743,1.411 -0.83,1.611 -0.065,0.149 -0.498,1.044 -0.748,1.576 l -0.033,0 -0.372,-2.825 c -0.016,-0.127 -0.022,-0.219 -0.022,-0.333 0,-0.136 0.094,-0.199 0.216,-0.228 0.128,-0.028 0.231,-0.036 0.303,-0.036 l 0.11,-0.049 c 0,-0.063 -0.068,-0.078 -0.175,-0.078 -0.302,0 -0.626,0.021 -0.756,0.021 -0.139,0 -0.483,-0.021 -0.716,-0.021 l -0.13,0.078 0.114,0.049 c 0.059,0 0.109,0 0.219,0.022 0.202,0.043 0.26,0.321 0.294,0.559 L 0,0" />
  </g>
  <g
     style="fill:#152b72;fill-opacity:1"
     transform="matrix(2.4511779,0,0,-2.4511779,342.15502,105.61145)"
     id="g4976">
    <path
       inkscape:connector-curvature="0"
       id="path4978"
       style="fill:#152b72;fill-opacity:1;fill-rule:nonzero;stroke:none"
       d="M 0,0 C 0,1.079 0,1.277 -0.016,1.504 -0.028,1.746 -0.086,1.858 -0.325,1.91 -0.383,1.924 -0.507,1.931 -0.606,1.931 L -0.73,1.994 c 0,0.05 0.05,0.064 0.16,0.064 0.193,0 0.404,-0.007 0.585,-0.007 C 0.2,2.044 0.366,2.037 0.468,2.037 c 0.231,0 1.666,0 1.805,0.007 0.136,0.014 0.251,0.027 0.311,0.043 L 2.698,2.114 2.742,2.051 C 2.742,2.002 2.705,1.916 2.683,1.59 L 2.648,1.122 2.575,1.043 2.509,1.142 2.468,1.397 C 2.417,1.524 2.343,1.611 1.983,1.652 1.858,1.667 1.104,1.682 0.959,1.682 l -0.05,-0.071 0,-1.796 0.05,-0.079 c 0.158,0 0.989,0 1.154,0.014 0.174,0.016 0.281,0.036 0.346,0.106 l 0.116,0.094 0.05,-0.057 C 2.625,-0.149 2.591,-0.264 2.568,-0.624 2.555,-0.768 2.539,-1.05 2.539,-1.102 L 2.475,-1.235 2.409,-1.171 c -0.008,0.069 -0.008,0.162 -0.028,0.256 -0.038,0.141 -0.14,0.248 -0.403,0.276 -0.138,0.015 -0.853,0.021 -1.025,0.021 l -0.044,-0.071 0,-0.56 c 0,-0.242 -0.006,-0.895 0,-1.102 0.012,-0.487 0.13,-0.594 0.865,-0.594 0.187,0 0.492,0 0.677,0.085 0.189,0.085 0.276,0.234 0.327,0.526 l 0.078,0.105 0.058,-0.127 c 0,-0.165 -0.058,-0.647 -0.092,-0.789 -0.052,-0.183 -0.117,-0.183 -0.39,-0.183 -0.541,0 -0.938,0.013 -1.249,0.02 -0.312,0.015 -0.534,0.021 -0.751,0.021 -0.079,0 -0.238,-0.006 -0.41,-0.006 -0.167,-0.009 -0.355,-0.015 -0.499,-0.015 -0.093,0 -0.144,0.021 -0.144,0.073 l 0.114,0.054 c 0.109,0 0.197,0.016 0.261,0.03 0.144,0.028 0.181,0.183 0.21,0.39 C 0,-2.463 0,-1.903 0,-1.249 L 0,0" />
  </g>
  <g
     style="fill:#152b72;fill-opacity:1"
     transform="matrix(2.4511779,0,0,-2.4511779,354.40845,111.3521)"
     id="g4980">
    <path
       inkscape:connector-curvature="0"
       id="path4982-8"
       style="fill:#152b72;fill-opacity:1;fill-rule:nonzero;stroke:none"
       d="m 0,0 c 0.016,-0.554 0.109,-0.738 0.253,-0.786 0.121,-0.044 0.26,-0.051 0.374,-0.051 l 0.124,-0.057 c 0,-0.057 -0.066,-0.07 -0.168,-0.07 -0.469,0 -0.757,0.02 -0.894,0.02 -0.061,0 -0.404,-0.02 -0.777,-0.02 -0.096,0 -0.16,0.006 -0.16,0.07 l 0.116,0.057 c 0.093,0 0.223,0.007 0.325,0.036 0.186,0.056 0.216,0.263 0.222,0.88 l 0.067,4.2 c 0,0.143 0.021,0.242 0.094,0.242 0.077,0 0.144,-0.092 0.266,-0.219 C -0.072,4.209 1.023,3.053 2.079,2.022 2.568,1.541 3.544,0.52 3.664,0.404 l 0.038,0 -0.073,3.188 C 3.621,4.023 3.555,4.159 3.383,4.23 3.275,4.272 3.103,4.272 3,4.272 L 2.886,4.336 C 2.886,4.393 2.967,4.4 3.074,4.4 3.447,4.4 3.798,4.379 3.948,4.379 4.028,4.379 4.3,4.4 4.653,4.4 4.747,4.4 4.819,4.393 4.819,4.336 L 4.688,4.272 4.475,4.252 C 4.269,4.195 4.215,4.046 4.206,3.647 L 4.128,-0.83 c 0,-0.155 -0.03,-0.221 -0.094,-0.221 L 3.788,-0.894 C 3.333,-0.468 2.41,0.461 1.661,1.191 0.874,1.959 0.074,2.846 -0.056,2.98 L -0.08,2.98 0,0" />
  </g>
  <g
     style="fill:#152b72;fill-opacity:1"
     transform="matrix(2.4511779,0,0,-2.4511779,372.60845,101.54249)"
     id="g4984">
    <path
       inkscape:connector-curvature="0"
       id="path4986"
       style="fill:#152b72;fill-opacity:1;fill-rule:nonzero;stroke:none"
       d="m 0,0 -1.075,-0.028 c -0.419,-0.014 -0.591,-0.05 -0.701,-0.206 -0.073,-0.108 -0.108,-0.192 -0.122,-0.248 l -0.08,-0.086 -0.065,0.114 c 0,0.112 0.136,0.76 0.152,0.816 0.023,0.093 0.042,0.135 0.086,0.135 0.059,0 0.131,-0.07 0.311,-0.085 0.208,-0.021 0.482,-0.035 0.723,-0.035 l 2.856,0 c 0.23,0 0.391,0.02 0.499,0.035 0.107,0.021 0.165,0.034 0.194,0.034 0.048,0 0.058,-0.043 0.058,-0.147 0,-0.151 -0.023,-0.641 -0.023,-0.823 L 2.749,-0.64 c -0.058,0 -0.073,0.037 -0.079,0.143 L 2.662,-0.418 C 2.648,-0.234 2.454,-0.036 1.811,-0.022 L 0.9,0 l 0,-2.909 c 0,-0.654 0,-1.214 0.038,-1.52 0.02,-0.198 0.066,-0.354 0.28,-0.383 0.101,-0.013 0.26,-0.029 0.369,-0.029 L 1.703,-4.896 1.564,-4.968 c -0.476,0 -0.931,0.021 -1.129,0.021 -0.168,0 -0.625,-0.021 -0.912,-0.021 -0.094,0 -0.144,0.021 -0.144,0.072 l 0.115,0.055 c 0.11,0 0.195,0.016 0.26,0.029 0.143,0.029 0.187,0.185 0.208,0.392 C 0,-4.123 0,-3.563 0,-2.909 L 0,0" />
  </g>
  <g
     style="fill:#152b72;fill-opacity:1"
     transform="matrix(2.4511779,0,0,-2.4511779,113.85231,126.37047)"
     id="g4988">
    <path
       inkscape:connector-curvature="0"
       id="path4990"
       style="fill:#152b72;fill-opacity:1;fill-rule:nonzero;stroke:none"
       d="M 0,0 C 0,1.079 0,1.279 -0.016,1.505 -0.03,1.745 -0.089,1.86 -0.327,1.909 -0.384,1.924 -0.507,1.931 -0.606,1.931 L -0.73,1.994 c 0,0.05 0.049,0.065 0.157,0.065 0.384,0 0.837,-0.021 1.055,-0.021 0.17,0 0.627,0.021 0.888,0.021 0.106,0 0.158,-0.015 0.158,-0.065 L 1.412,1.931 1.203,1.909 C 1.008,1.873 0.951,1.753 0.938,1.505 0.921,1.279 0.921,1.079 0.921,0 l 0,-0.994 c 0,-1.027 0.208,-1.462 0.563,-1.744 0.327,-0.262 0.658,-0.293 0.903,-0.293 0.317,0 0.707,0.1 0.994,0.384 0.396,0.391 0.421,1.029 0.421,1.76 l 0,0.887 c 0,1.079 0,1.279 -0.017,1.505 C 3.772,1.745 3.713,1.86 3.476,1.909 L 3.216,1.931 3.094,1.994 c 0,0.05 0.052,0.065 0.151,0.065 0.368,0 0.822,-0.021 0.831,-0.021 0.086,0 0.538,0.021 0.821,0.021 0.102,0 0.152,-0.015 0.152,-0.065 L 4.919,1.931 4.708,1.909 C 4.514,1.873 4.456,1.753 4.443,1.505 4.428,1.279 4.428,1.079 4.428,0 l 0,-0.76 c 0,-0.786 -0.08,-1.625 -0.685,-2.136 -0.512,-0.432 -1.033,-0.511 -1.502,-0.511 -0.382,0 -1.073,0.022 -1.602,0.49 C 0.272,-2.591 0,-2.064 0,-1.037 L 0,0" />
  </g>
  <g
     style="fill:#152b72;fill-opacity:1"
     transform="matrix(2.4511779,0,0,-2.4511779,130.75563,132.11358)"
     id="g4992">
    <path
       inkscape:connector-curvature="0"
       id="path4994"
       style="fill:#152b72;fill-opacity:1;fill-rule:nonzero;stroke:none"
       d="m 0,0 c 0.014,-0.553 0.107,-0.737 0.252,-0.787 0.123,-0.042 0.26,-0.049 0.374,-0.049 l 0.125,-0.058 c 0,-0.056 -0.066,-0.07 -0.169,-0.07 -0.469,0 -0.758,0.021 -0.893,0.021 -0.066,0 -0.406,-0.021 -0.78,-0.021 -0.094,0 -0.159,0.007 -0.159,0.07 l 0.115,0.058 c 0.095,0 0.225,0.007 0.325,0.035 0.189,0.058 0.216,0.263 0.225,0.879 l 0.064,4.204 c 0,0.14 0.022,0.24 0.093,0.24 0.08,0 0.145,-0.091 0.269,-0.219 C -0.072,4.209 1.022,3.053 2.076,2.024 2.567,1.54 3.541,0.519 3.663,0.406 l 0.037,0 -0.071,3.186 C 3.62,4.025 3.555,4.16 3.383,4.23 3.274,4.273 3.102,4.273 3,4.273 L 2.886,4.337 C 2.886,4.395 2.964,4.4 3.071,4.4 3.446,4.4 3.793,4.381 3.945,4.381 4.025,4.381 4.3,4.4 4.651,4.4 4.747,4.4 4.818,4.395 4.818,4.337 L 4.688,4.273 4.472,4.252 C 4.27,4.195 4.212,4.047 4.206,3.648 l -0.08,-4.477 c 0,-0.155 -0.028,-0.222 -0.096,-0.222 L 3.785,-0.894 C 3.333,-0.468 2.408,0.463 1.657,1.193 0.873,1.96 0.069,2.847 -0.06,2.981 l -0.02,0 L 0,0" />
  </g>
  <g
     style="fill:#152b72;fill-opacity:1"
     transform="matrix(2.4511779,0,0,-2.4511779,146.59759,126.37047)"
     id="g4996">
    <path
       inkscape:connector-curvature="0"
       id="path4998"
       style="fill:#152b72;fill-opacity:1;fill-rule:nonzero;stroke:none"
       d="M 0,0 C 0,1.079 0,1.279 -0.014,1.505 -0.029,1.745 -0.1,1.867 -0.26,1.901 l -0.26,0.03 -0.115,0.07 c 0,0.043 0.058,0.058 0.174,0.058 0.275,0 0.729,-0.021 0.939,-0.021 0.179,0 0.605,0.021 0.878,0.021 0.096,0 0.152,-0.015 0.152,-0.058 L 1.392,1.931 1.176,1.909 C 0.981,1.873 0.923,1.753 0.909,1.505 0.893,1.279 0.893,1.079 0.893,0 l 0,-1.249 c 0,-0.688 0,-1.25 0.03,-1.554 0.022,-0.191 0.072,-0.318 0.29,-0.348 0.101,-0.014 0.259,-0.027 0.367,-0.027 L 1.696,-3.236 1.56,-3.307 c -0.477,0 -0.931,0.021 -1.128,0.021 -0.164,0 -0.618,-0.021 -0.907,-0.021 -0.094,0 -0.146,0.021 -0.146,0.071 l 0.116,0.058 c 0.108,0 0.196,0.013 0.261,0.027 0.144,0.03 0.185,0.151 0.208,0.355 C 0,-2.499 0,-1.937 0,-1.249 L 0,0" />
  </g>
  <g
     style="fill:#152b72;fill-opacity:1"
     transform="matrix(2.4511779,0,0,-2.4511779,153.054,123.02952)"
     id="g5000">
    <path
       inkscape:connector-curvature="0"
       id="path5002"
       style="fill:#152b72;fill-opacity:1;fill-rule:nonzero;stroke:none"
       d="M 0,0 C -0.166,0.39 -0.289,0.468 -0.549,0.538 -0.657,0.567 -0.773,0.567 -0.83,0.567 l -0.087,0.065 c 0,0.056 0.08,0.062 0.189,0.062 0.381,0 0.792,-0.019 1.045,-0.019 0.18,0 0.528,0.019 0.889,0.019 L 1.37,0.632 1.262,0.567 C 1.148,0.567 1.038,0.562 0.981,0.517 L 0.907,0.368 c 0,-0.092 0.066,-0.291 0.168,-0.546 l 1.24,-3.221 0.028,0 c 0.312,0.781 1.25,3.065 1.422,3.535 L 3.832,0.396 3.737,0.53 C 3.649,0.562 3.541,0.567 3.449,0.567 L 3.326,0.624 c 0,0.057 0.065,0.07 0.201,0.07 0.362,0 0.665,-0.019 0.759,-0.019 0.122,0 0.461,0.019 0.677,0.019 0.094,0 0.152,-0.013 0.152,-0.062 L 4.999,0.567 c -0.072,0 -0.222,0 -0.351,-0.087 C 4.553,0.418 4.444,0.297 4.25,-0.156 3.967,-0.824 3.773,-1.206 3.385,-2.079 2.922,-3.115 2.581,-3.89 2.423,-4.244 2.235,-4.656 2.193,-4.77 2.093,-4.77 c -0.094,0 -0.139,0.1 -0.274,0.434 L 0,0" />
  </g>
  <g
     style="fill:#152b72;fill-opacity:1"
     transform="matrix(2.4511779,0,0,-2.4511779,167.57232,126.37047)"
     id="g5004">
    <path
       inkscape:connector-curvature="0"
       id="path5006-6"
       style="fill:#152b72;fill-opacity:1;fill-rule:nonzero;stroke:none"
       d="m 0,0 c 0,1.079 0,1.279 -0.015,1.505 -0.013,0.24 -0.072,0.355 -0.309,0.404 -0.06,0.015 -0.182,0.022 -0.281,0.022 l -0.122,0.063 c 0,0.05 0.049,0.065 0.158,0.065 0.195,0 0.405,-0.008 0.583,-0.008 0.189,-0.007 0.353,-0.013 0.454,-0.013 0.232,0 1.667,0 1.805,0.006 0.136,0.015 0.252,0.029 0.311,0.043 L 2.699,2.114 2.741,2.051 C 2.741,2.001 2.706,1.917 2.684,1.589 L 2.648,1.12 2.577,1.045 2.511,1.144 2.47,1.398 C 2.417,1.526 2.346,1.612 1.984,1.653 1.862,1.667 1.104,1.683 0.959,1.683 l -0.051,-0.071 0,-1.796 0.051,-0.078 c 0.159,0 0.989,0 1.155,0.013 0.172,0.016 0.282,0.035 0.347,0.106 l 0.116,0.094 0.049,-0.056 c 0,-0.043 -0.035,-0.157 -0.057,-0.52 C 2.556,-0.767 2.54,-1.051 2.54,-1.1 L 2.476,-1.233 2.409,-1.172 C 2.403,-1.1 2.403,-1.008 2.381,-0.915 2.346,-0.772 2.242,-0.666 1.979,-0.639 1.84,-0.625 1.128,-0.617 0.95,-0.617 l -0.042,-0.07 0,-0.562 c 0,-0.242 -0.005,-0.894 0,-1.1 0.016,-0.49 0.13,-0.594 0.866,-0.594 0.189,0 0.492,0 0.682,0.084 0.184,0.086 0.272,0.233 0.321,0.524 l 0.08,0.108 0.058,-0.128 C 2.915,-2.519 2.857,-3 2.821,-3.144 2.77,-3.328 2.706,-3.328 2.431,-3.328 c -0.541,0 -0.938,0.015 -1.247,0.021 -0.31,0.014 -0.534,0.021 -0.751,0.021 -0.079,0 -0.238,-0.007 -0.412,-0.007 -0.165,-0.007 -0.352,-0.014 -0.499,-0.014 -0.091,0 -0.141,0.021 -0.141,0.071 l 0.113,0.058 c 0.109,0 0.197,0.013 0.262,0.027 0.143,0.03 0.18,0.184 0.208,0.391 C 0,-2.462 0,-1.901 0,-1.249 L 0,0" />
  </g>
  <g
     style="fill:#152b72;fill-opacity:1"
     transform="matrix(2.4511779,0,0,-2.4511779,178.83794,126.37047)"
     id="g5008">
    <path
       inkscape:connector-curvature="0"
       id="path5010"
       style="fill:#152b72;fill-opacity:1;fill-rule:nonzero;stroke:none"
       d="m 0,0 c 0,1.079 0,1.279 -0.015,1.505 -0.015,0.24 -0.074,0.355 -0.309,0.404 -0.06,0.015 -0.182,0.022 -0.281,0.022 l -0.124,0.063 c 0,0.05 0.049,0.065 0.158,0.065 0.383,0 0.838,-0.021 0.987,-0.021 0.246,0 0.796,0.021 1.02,0.021 0.454,0 0.936,-0.042 1.328,-0.306 0.2,-0.135 0.491,-0.497 0.491,-0.972 0,-0.526 -0.225,-1.007 -0.954,-1.589 0.64,-0.796 1.139,-1.427 1.566,-1.867 0.403,-0.412 0.699,-0.462 0.807,-0.483 l 0.203,-0.02 0.086,-0.058 -0.139,-0.071 -0.684,0 c -0.403,0 -0.583,0.035 -0.772,0.134 -0.31,0.165 -0.583,0.498 -0.987,1.043 -0.29,0.392 -0.621,0.874 -0.716,0.981 l -0.13,0.049 -0.629,0.015 -0.055,-0.057 0,-0.1 c 0,-0.659 0,-1.22 0.036,-1.518 0.019,-0.207 0.066,-0.361 0.281,-0.391 0.107,-0.014 0.268,-0.027 0.353,-0.027 l 0.087,-0.058 c 0,-0.05 -0.05,-0.071 -0.144,-0.071 -0.419,0 -0.951,0.021 -1.062,0.021 -0.135,0 -0.59,-0.021 -0.88,-0.021 -0.093,0 -0.143,0.021 -0.143,0.071 l 0.115,0.058 c 0.109,0 0.195,0.013 0.262,0.027 0.141,0.03 0.178,0.184 0.208,0.391 C 0,-2.462 0,-1.901 0,-1.249 L 0,0 Z m 0.851,-0.561 0.063,-0.126 c 0.153,-0.05 0.369,-0.073 0.55,-0.073 0.289,0 0.383,0.03 0.513,0.121 0.215,0.158 0.426,0.483 0.426,1.064 0,1.009 -0.681,1.302 -1.105,1.302 -0.181,0 -0.31,-0.008 -0.384,-0.031 l -0.063,-0.098 0,-2.159" />
  </g>
  <g
     style="fill:#152b72;fill-opacity:1"
     transform="matrix(2.4511779,0,0,-2.4511779,191.03745,134.26572)"
     id="g5012">
    <path
       inkscape:connector-curvature="0"
       id="path5014"
       style="fill:#152b72;fill-opacity:1;fill-rule:nonzero;stroke:none"
       d="m 0,0 c -0.114,0.048 -0.136,0.084 -0.136,0.24 0,0.39 0.029,0.815 0.036,0.929 0.008,0.107 0.03,0.186 0.086,0.186 L 0.06,1.234 c 0,-0.091 0.028,-0.24 0.064,-0.362 0.159,-0.525 0.585,-0.717 1.032,-0.717 0.649,0 0.967,0.434 0.967,0.809 0,0.349 -0.108,0.682 -0.709,1.137 L 1.084,2.356 C 0.291,2.965 0.016,3.462 0.016,4.037 c 0,0.781 0.665,1.343 1.666,1.343 0.469,0 0.774,-0.071 0.961,-0.123 L 2.742,5.172 C 2.742,5.08 2.714,4.874 2.714,4.321 2.714,4.165 2.692,4.107 2.634,4.107 l -0.07,0.128 c 0,0.065 -0.038,0.286 -0.188,0.469 -0.11,0.135 -0.319,0.348 -0.787,0.348 -0.534,0 -0.86,-0.305 -0.86,-0.731 0,-0.328 0.166,-0.575 0.767,-1.022 l 0.2,-0.15 C 2.564,2.49 2.88,2.014 2.88,1.341 2.88,0.928 2.722,0.44 2.203,0.105 1.84,-0.121 1.436,-0.186 1.055,-0.186 0.637,-0.186 0.313,-0.136 0,0" />
  </g>
  <g
     style="fill:#152b72;fill-opacity:1"
     transform="matrix(2.4511779,0,0,-2.4511779,202.39376,126.37047)"
     id="g5016">
    <path
       inkscape:connector-curvature="0"
       id="path5018"
       style="fill:#152b72;fill-opacity:1;fill-rule:nonzero;stroke:none"
       d="m 0,0 c 0,1.079 0,1.279 -0.014,1.505 -0.014,0.24 -0.088,0.362 -0.245,0.396 l -0.26,0.03 -0.116,0.07 c 0,0.043 0.058,0.058 0.174,0.058 0.273,0 0.729,-0.021 0.939,-0.021 0.179,0 0.605,0.021 0.878,0.021 0.094,0 0.152,-0.015 0.152,-0.058 L 1.395,1.931 1.176,1.909 C 0.982,1.873 0.925,1.753 0.909,1.505 0.896,1.279 0.896,1.079 0.896,0 l 0,-1.249 c 0,-0.688 0,-1.25 0.029,-1.554 0.02,-0.191 0.07,-0.318 0.287,-0.348 0.101,-0.014 0.26,-0.027 0.368,-0.027 L 1.694,-3.236 1.559,-3.307 c -0.476,0 -0.932,0.021 -1.123,0.021 -0.168,0 -0.624,-0.021 -0.913,-0.021 -0.094,0 -0.142,0.021 -0.142,0.071 l 0.114,0.058 c 0.109,0 0.195,0.013 0.261,0.027 0.142,0.03 0.186,0.151 0.208,0.355 C 0,-2.499 0,-1.937 0,-1.249 L 0,0" />
  </g>
  <g
     style="fill:#152b72;fill-opacity:1"
     transform="matrix(2.4511779,0,0,-2.4511779,212.83087,122.30152)"
     id="g5020">
    <path
       inkscape:connector-curvature="0"
       id="path5022"
       style="fill:#152b72;fill-opacity:1;fill-rule:nonzero;stroke:none"
       d="m 0,0 -1.075,-0.027 c -0.419,-0.015 -0.593,-0.05 -0.698,-0.205 -0.075,-0.109 -0.11,-0.193 -0.124,-0.248 l -0.08,-0.086 -0.066,0.112 c 0,0.113 0.139,0.761 0.152,0.817 0.023,0.091 0.043,0.136 0.087,0.136 0.058,0 0.13,-0.072 0.31,-0.086 0.208,-0.021 0.483,-0.037 0.722,-0.037 l 2.857,0 c 0.231,0 0.39,0.021 0.497,0.037 0.108,0.022 0.167,0.035 0.194,0.035 0.05,0 0.058,-0.044 0.058,-0.148 0,-0.151 -0.021,-0.641 -0.021,-0.824 L 2.749,-0.638 c -0.059,0 -0.073,0.036 -0.079,0.141 l -0.008,0.079 c -0.014,0.186 -0.21,0.384 -0.85,0.397 L 0.901,0 l 0,-2.909 c 0,-0.652 0,-1.213 0.037,-1.519 0.022,-0.2 0.063,-0.354 0.282,-0.384 0.1,-0.013 0.258,-0.027 0.367,-0.027 L 1.702,-4.896 1.565,-4.967 c -0.477,0 -0.932,0.021 -1.134,0.021 -0.165,0 -0.618,-0.021 -0.907,-0.021 -0.095,0 -0.145,0.021 -0.145,0.071 l 0.115,0.057 c 0.109,0 0.194,0.014 0.26,0.027 0.146,0.03 0.188,0.184 0.208,0.392 C 0,-4.122 0,-3.561 0,-2.909 L 0,0" />
  </g>
  <g
     style="fill:#152b72;fill-opacity:1"
     transform="matrix(2.4511779,0,0,-2.4511779,225.18971,129.9688)"
     id="g5024">
    <path
       inkscape:connector-curvature="0"
       id="path5026"
       style="fill:#152b72;fill-opacity:1;fill-rule:nonzero;stroke:none"
       d="m 0,0 c 0,0.383 -0.072,0.539 -0.166,0.744 -0.05,0.112 -1.018,1.676 -1.271,2.044 -0.18,0.263 -0.36,0.441 -0.498,0.519 -0.093,0.048 -0.214,0.091 -0.303,0.091 l -0.108,0.065 0.138,0.062 c 0.13,0 0.67,-0.019 0.91,-0.019 0.151,0 0.447,0.019 0.771,0.019 l 0.108,-0.062 c 0,-0.043 -0.05,-0.05 -0.16,-0.078 l -0.1,-0.128 c 0,-0.059 0.038,-0.143 0.086,-0.242 0.102,-0.212 1.111,-1.923 1.228,-2.121 0.071,0.169 0.981,1.732 1.081,1.952 0.072,0.156 0.1,0.275 0.1,0.367 0,0.073 -0.028,0.149 -0.15,0.18 l -0.13,0.07 0.122,0.062 c 0.24,0 0.471,-0.019 0.679,-0.019 0.158,0 0.635,0.019 0.771,0.019 L 3.239,3.469 3.103,3.398 C 3.03,3.398 2.892,3.37 2.784,3.312 2.631,3.241 2.554,3.156 2.395,2.967 2.157,2.682 1.147,1.014 1.017,0.709 0.909,0.454 0.909,0.233 0.909,0 l 0,-0.584 c 0,-0.113 0,-0.41 0.022,-0.708 0.014,-0.207 0.078,-0.361 0.295,-0.392 0.1,-0.012 0.26,-0.026 0.36,-0.026 l 0.116,-0.06 c 0,-0.048 -0.058,-0.069 -0.152,-0.069 -0.455,0 -0.909,0.021 -1.104,0.021 -0.18,0 -0.635,-0.021 -0.901,-0.021 -0.102,0 -0.158,0.014 -0.158,0.069 l 0.114,0.06 c 0.102,0 0.189,0.014 0.254,0.026 0.143,0.031 0.209,0.185 0.223,0.392 C 0,-0.994 0,-0.697 0,-0.584 L 0,0" />
  </g>
</svg>
